<?xml version="1.0" encoding="UTF-8"?>
<svg width="241px" height="262px" viewBox="0 0 241 262" version="1.1" xmlns="http://www.w3.org/2000/svg" xmlns:xlink="http://www.w3.org/1999/xlink">
    <title>browser-too-old</title>
    <defs>
        <path d="M0,17.4417259 C7.77675359,20.8055796 16.2578397,25.1498531 24.7931051,30.2717007 L24.7931051,30.2717007 C33.2491081,35.3448257 40.908473,40.6615641 47.3829138,45.813242 L47.3829138,45.813242 C52.2931747,40.9489285 55.3141791,34.35844 55.3141791,27.0967717 L55.3141791,27.0967717 C55.3141791,12.1319479 42.5117825,0 26.7194846,0 L26.7194846,0 C14.5170749,0 4.10559614,7.24675322 0,17.4417259" id="path-1"></path>
        <radialGradient cx="41.6543783%" cy="28.9394309%" fx="41.6543783%" fy="28.9394309%" r="128.190507%" gradientTransform="translate(0.416544,0.289394),scale(0.828237,1.000000),rotate(74.813766),translate(-0.416544,-0.289394)" id="radialGradient-3">
            <stop stop-color="#8D949D" offset="0%"></stop>
            <stop stop-color="#424445" offset="100%"></stop>
        </radialGradient>
        <polygon id="path-4" points="1.66531504e-16 -4.44091149e-16 19.1045763 -4.44091149e-16 19.1045763 25.0751095 1.66531504e-16 25.0751095"></polygon>
    </defs>
    <g id="空状态插画-暗色" stroke="none" stroke-width="1" fill="none" fill-rule="evenodd">
        <g id="旧版缺省状态-browser-too-old" transform="translate(-279.000000, -226.000000)">
            <g id="browser-too-old" transform="translate(280.000000, 227.000000)">
                <g id="Fill-2" transform="translate(83.863433, 40.458447)" fill="#373B3F" fill-rule="nonzero">
                    <path d="M79.9095925,37.5138169 C74.7168435,42.6944114 67.4065656,45.9277894 59.2987119,45.9277894 C43.5473397,45.9277894 30.7781206,33.7452039 30.7781206,18.7166866 C30.7781206,15.3005698 31.4446018,12.0332403 32.6484709,9.02154543 C14.7235295,1.21470501 2.45867452,-2.99927128 0.256084291,2.48988219 C-1.86644813,7.78031972 9.09446542,30.3949929 37.2828168,47.4256483 C65.4711683,64.4553051 99.3276119,68.1270564 99.3276119,60.4070918 C99.3276119,55.4142289 95.0355131,49.6334923 79.9095925,37.5138169" id="路径"></path>
                </g>
                <g id="Fill-3-Clipped" transform="translate(115.386567, 33.913699)">
                    <mask id="mask-2" fill="white">
                        <use xlink:href="#path-1"></use>
                    </mask>
                    <g id="path-1"></g>
                    <path d="M0,17.4417259 C7.77675359,20.8055796 16.2578397,25.1498531 24.7931051,30.2717007 L24.7931051,30.2717007 C33.2491081,35.3448257 40.908473,40.6615641 47.3829138,45.813242 L47.3829138,45.813242 C52.2931747,40.9489285 55.3141791,34.35844 55.3141791,27.0967717 L55.3141791,27.0967717 C55.3141791,12.1319479 42.5117825,0 26.7194846,0 L26.7194846,0 C14.5170749,0 4.10559614,7.24675322 0,17.4417259" id="Fill-3" fill="url(#radialGradient-3)" fill-rule="nonzero" mask="url(#mask-2)"></path>
                </g>
                <g id="编组">
                    <path d="M141.998337,87.5003821 C150.100242,87.5003821 157.404157,84.2633679 162.594096,79.0743453 C156.141171,73.8933226 148.506261,68.5462993 140.07836,63.443277 C131.571459,58.2932545 123.117558,53.9242355 115.367649,50.5412207 C114.164663,53.5582339 113.498671,56.8292481 113.498671,60.2502631 C113.498671,75.3003288 126.258521,87.5003821 141.998337,87.5003821" id="Fill-5" fill="#373B3F" fill-rule="nonzero"></path>
                    <g transform="translate(219.995424, 66.013488)" id="Fill-7-Clipped">
                        <mask id="mask-5" fill="white">
                            <use xlink:href="#path-4"></use>
                        </mask>
                        <g id="path-4"></g>
                        <path d="M1.66531504e-16,12.0210525 C1.66531504e-16,12.0210525 8.00190629,8.98703924 10.2718797,-4.44091149e-16 C13.5418414,7.37003218 15.2278217,10.5570461 19.1047763,11.9580522 C13.8258381,14.435063 11.5328649,17.2170752 9.72688609,25.0751095 C7.65391037,15.8170691 5.76693247,14.6190638 1.66531504e-16,12.0210525" id="Fill-7" fill="#FFFFFF" fill-rule="nonzero" opacity="0.199999988" mask="url(#mask-5)"></path>
                    </g>
                    <path d="M29.4527551,77.5716387 C29.4527551,77.5716387 34.6926937,75.58463 36.1806763,69.6996043 C38.3206512,74.5256254 39.4256383,76.6126345 41.9646086,77.5306385 C38.508649,79.1526456 37.0056666,80.9746536 35.8226805,86.120676 C34.4656964,80.0566496 33.2287109,79.2726461 29.4527551,77.5716387" id="Fill-9" fill="#FFFFFF" fill-rule="nonzero" opacity="0.199999988"></path>
                    <path d="M75.4991159,198.500867 C75.4991159,198.500867 79.499069,226.500989 78.4990807,233.50102 C77.4990924,240.50105 77.4990924,254.501111 78.4990807,255.501116 C79.499069,256.50112 82.999028,259.001131 83.9990163,257.001122 C84.9990046,255.001113 87.4989753,242.501059 89.4989519,236.501033 C91.4989285,230.501006 93.4989051,219.500958 94.4988934,218.500954 C95.4988817,217.50095 98.4988465,232.501015 99.4988348,235.501028 C100.498823,238.501041 102.4988,253.501107 104.498776,255.501116 C106.498753,257.501124 111.498694,255.501116 111.498694,254.501111 C111.498694,253.501107 108.998724,243.001061 108.998724,238.001039 C108.998724,233.001017 111.348696,206.417901 112.498683,204.500893 C113.998665,202.000882 111.498694,194.500849 111.498694,194.500849 L75.4991159,198.500867 Z" id="Fill-11" fill="#144199" fill-rule="nonzero"></path>
                    <path d="M117.615823,155.500679 C117.615823,155.500679 125.744727,167.884733 125.744727,179.441784 C125.744727,185.221809 126.760716,191.000834 124.727739,191.000834 C122.695763,191.000834 121.679775,191.000834 120.664787,189.349827 C119.647799,187.69782 119.647799,180.268787 118.632811,176.140769 C117.615823,172.012751 108.47093,159.628697 110.503906,157.97769 C112.535882,156.325683 117.615823,155.500679 117.615823,155.500679" id="Fill-13" fill="#D9B791" fill-rule="nonzero"></path>
                    <path d="M69.4551866,153.50067 C69.4551866,153.50067 66.1292256,157.503688 63.6352548,164.707719 C61.140284,171.912751 57.813323,182.319796 61.9722743,185.52181 C62.8032645,186.321814 63.6352548,186.321814 64.4662451,183.920803 C65.2982353,181.519793 64.4662451,179.117782 66.1292256,178.316779 L66.1292256,181.519793 C66.1292256,183.1208 66.9602159,183.920803 67.7922061,182.319796 C68.6231964,180.718789 68.6231964,179.117782 68.6231964,177.516775 C68.6231964,175.915768 71.1181672,156.702684 73.612138,155.101677 C76.1071087,153.50067 69.4551866,153.50067 69.4551866,153.50067" id="Fill-15" fill="#D9B791" fill-rule="nonzero"></path>
                    <path d="M86.498987,123.500539 C86.498987,123.500539 88.4989636,132.500579 87.4989753,132.500579 C86.498987,132.500579 95.4988817,133.500583 95.4988817,133.500583 C95.4988817,133.500583 98.4988465,125.500539 98.4988465,124.500539 C98.4988465,123.500539 86.498987,123.500539 86.498987,123.500539" id="Fill-17" fill="#D9B791" fill-rule="nonzero"></path>
                    <path d="M78.4990807,105.500461 C78.4990807,105.500461 78.6080795,106.022463 78.9990749,108.000472 C79.0980737,108.502474 77.9990866,106.000463 75.99911,107.000467 C75.1021205,107.448469 75.1731197,109.174477 77.9990866,112.000489 C78.9990749,113.000493 79.8720647,112.496491 79.9990632,113.000493 C80.6460556,115.571505 81.7430427,119.366521 82.4990339,120.500526 C84.4990105,123.500539 87.4989753,127.500557 91.4989285,127.500557 C95.4988817,127.500557 100.498823,127.500557 102.4988,123.500539 C104.498776,119.500522 106.998747,117.000511 106.498753,110.500482 C106.443753,109.784479 109.998712,110.00048 107.998735,104.000454 C107.551741,102.658448 104.99877,104.000454 104.99877,105.000458 C104.99877,108.064472 104.498776,99.5004345 104.498776,99.5004345 L78.4990807,105.500461 Z" id="Fill-19" fill="#D9B791" fill-rule="nonzero"></path>
                    <path d="M78.4990807,94.5004126 C78.4990807,94.5004126 74.4991276,116.500509 90.4989402,118.500517 C101.498811,119.500522 105.998759,114.000498 106.998747,100.000437 C107.57274,91.9584015 107.498741,88.5003864 107.498741,84.500369 C107.498741,80.2583504 108.023735,86.7473788 98.9988407,84.0003668 C87.4989753,80.5003515 80.4990573,85.5003733 78.4990807,94.5004126" id="Fill-21" fill="#191F35" fill-rule="nonzero"></path>
                    <path d="M78.4990807,94.5004126 C78.4990807,94.5004126 74.4991276,116.500509 90.4989402,118.500517 C101.498811,119.500522 105.998759,114.000498 106.998747,100.000437 C107.57274,91.9584015 107.498741,88.5003864 107.498741,84.500369 C107.498741,80.2583504 108.023735,86.7473788 98.9988407,84.0003668 C87.4989753,80.5003515 80.4990573,85.5003733 78.4990807,94.5004126" id="Fill-21备份" fill="#FFFFFF" fill-rule="nonzero" opacity="0.119999997"></path>
                    <path d="M65.499233,152.500666 C65.499233,152.500666 72.499151,135.500592 87.4989753,133.500583 C102.4988,131.500574 109.498718,137.5006 114.498659,143.500627 C119.498601,149.500653 121.665575,152.031664 121.498577,155.500679 C121.344579,158.698693 117.498624,164.500718 111.498694,163.500714 C111.498694,163.500714 118.498612,181.500792 118.498612,193.500845 C118.498612,205.500897 106.498753,202.500884 102.4988,202.500884 L84.4990105,202.500884 C82.4990339,202.500884 71.4991627,200.500875 70.4991744,198.500867 C69.4991861,196.500858 69.4991861,180.500788 72.499151,170.500744 C75.4991159,160.500701 77.4990924,158.500692 77.4990924,158.500692 C77.4990924,158.500692 65.499233,156.500683 65.499233,152.500666" id="Fill-23" fill="#FFBA2A" fill-rule="nonzero"></path>
                    <path d="M78.1914843,253.697408 C78.1914843,253.697408 78.309483,256.702421 78.3854821,258.652429 C78.4614812,260.562438 79.6154677,260.472437 81.4994456,260.501437 C83.4114232,260.529438 83.4514227,259.038431 86.499387,258.501429 C98.7862432,256.338419 97.5422577,249.309389 93.4993051,248.501385 C90.9993343,248.001383 89.4423526,250.280393 86.2413901,250.368393 C82.9494286,250.459394 82.1294382,252.596403 82.1294382,252.596403 L78.1914843,253.697408 Z" id="Fill-25" fill="#603624" fill-rule="nonzero"></path>
                    <path d="M103.206791,253.448407 C103.206791,253.448407 102.049805,256.60142 102.4988,258.501429 C102.937795,260.361437 105.644763,260.834439 107.498741,260.501437 C109.380719,260.163436 109.393719,257.680425 112.281685,256.57042 C123.926549,252.091401 121.615576,247.716382 117.498624,247.501381 C116.362637,247.44138 113.59467,247.937383 110.469706,248.637386 C107.256744,249.357389 106.861749,251.612399 106.861749,251.612399 L103.206791,253.448407 Z" id="Fill-27" fill="#603624" fill-rule="nonzero"></path>
                    <line x1="157.99815" y1="4.50001965" x2="166.998044" y2="4.50001965" id="Stroke-29" stroke="#67624E" stroke-width="0.75" stroke-linecap="round" stroke-linejoin="round"></line>
                    <line x1="162.498097" y1="0" x2="162.498097" y2="9.0000393" id="Stroke-31" stroke="#67624E" stroke-width="0.75" stroke-linecap="round" stroke-linejoin="round"></line>
                    <line x1="184.497839" y1="118.750519" x2="192.99774" y2="118.750519" id="Stroke-33" stroke="#67624E" stroke-width="0.708" stroke-linecap="round" stroke-linejoin="round"></line>
                    <line x1="188.74779" y1="114.5005" x2="188.74779" y2="123.000537" id="Stroke-35" stroke="#67624E" stroke-width="0.708" stroke-linecap="round" stroke-linejoin="round"></line>
                    <line x1="0" y1="136.750597" x2="8.49990046" y2="136.750597" id="Stroke-37" stroke="#67624E" stroke-width="0.708" stroke-linecap="round" stroke-linejoin="round"></line>
                    <line x1="4.24995023" y1="132.500579" x2="4.24995023" y2="141.000616" id="Stroke-39" stroke="#67624E" stroke-width="0.708" stroke-linecap="round" stroke-linejoin="round"></line>
                    <path d="M98.9988407,98.0004279 C98.9988407,98.0004279 98.9988407,100.000428 98.4988465,100.885441 C98.2458495,101.331442 98.9988407,103.00045 99.998829,102.000445 C100.998817,101.000441 98.9988407,98.0004279 98.9988407,98.0004279" id="Fill-41" fill="#E8E8E8" fill-rule="nonzero"></path>
                    <path d="M101.931406,103.743653 C101.931406,103.743653 101.661409,104.861658 101.263414,105.28966 C101.062417,105.505661 101.258414,106.540665 101.952406,106.115663 C102.646398,105.690661 101.931406,103.743653 101.931406,103.743653" id="Fill-43" fill="#E8E8E8" fill-rule="nonzero"></path>
                </g>
            </g>
        </g>
    </g>
</svg>