<?xml version="1.0" encoding="UTF-8"?>
<svg width="176px" height="266px" viewBox="0 0 176 266" version="1.1" xmlns="http://www.w3.org/2000/svg" xmlns:xlink="http://www.w3.org/1999/xlink">
    <title>no-history-version</title>
    <defs>
        <path d="M2.8444771,0.872905127 C-1.70706561,3.21792125 0.569179966,12.6018957 0.569179966,12.6018957 L0.569179966,12.6018957 C0.569179966,12.6018957 8.91541373,12.6018957 8.15666521,9.47390424 L8.15666521,9.47390424 C7.39696825,6.34591275 8.15666521,1.6539255 8.15666521,1.6539255 L8.15666521,1.6539255 C8.15666521,1.6539255 7.75547693,0 5.78462763,0 L5.78462763,0 C5.04579626,0 4.08597938,0.232644367 2.8444771,0.872905127 L2.8444771,0.872905127 Z" id="path-1"></path>
    </defs>
    <g id="空状态插画-暗色" stroke="none" stroke-width="1" fill="none" fill-rule="evenodd">
        <g id="旧版缺省状态-browser-too-old备份-3" transform="translate(-312.000000, -267.000000)">
            <g id="no-history-version" transform="translate(312.000000, 267.000000)">
                <g id="编组">
                    <path d="M153.854284,110.498854 L63.3113116,110.498854 C62.085339,110.498854 61.0843614,109.496864 61.0843614,108.270877 L61.0843614,2.22797689 C61.0843614,1.0019896 62.085339,0 63.3113116,0 L153.854284,0 C155.080257,0 156.082234,1.0019896 156.082234,2.22797689 L156.082234,108.270877 C156.082234,109.496864 155.080257,110.498854 153.854284,110.498854" id="Fill-2" fill="#5E5B53" fill-rule="nonzero"></path>
                    <path d="M121.459509,253.619469 C121.459509,253.619469 122.459487,259.219411 125.259424,259.219411 C128.060362,259.219411 130.659303,260.419398 130.459308,262.619375 C130.259312,264.818353 127.060384,264.619355 121.8595,264.419357 C116.659617,264.219359 115.259648,264.619355 115.259648,262.619375 C115.259648,260.807394 116.459621,258.419419 116.659617,257.018433 C116.859612,255.619448 117.060608,252.219483 117.060608,252.219483 L121.459509,253.619469 Z" id="Fill-3" fill="#603624" fill-rule="nonzero"></path>
                    <path d="M89.6604215,255.219052 C89.6604215,255.219052 90.8603947,259.819004 93.0603454,260.418998 C95.2602961,261.018992 98.260229,260.818994 98.8602155,262.818973 C99.5522,265.125949 96.6602648,266.218938 90.6603991,265.818942 C84.6605335,265.418946 83.2605648,266.01894 83.2605648,264.218959 C83.2605648,262.321978 85.2605201,256.619038 85.2605201,255.619048 C85.2605201,254.619058 89.6604215,255.219052 89.6604215,255.219052" id="Fill-4" fill="#603624" fill-rule="nonzero"></path>
                    <path d="M70.5836487,162.498314 C70.5836487,162.498314 71.3866307,182.905102 70.9146413,188.543044 C70.5836487,192.498003 69.5836711,193.497992 70.9146413,194.941978 C72.447607,196.60596 73.7835771,195.69797 74.5835591,192.498003 C75.3835412,189.298036 75.4035408,181.631116 75.7145338,180.543127 C76.5835144,177.498158 70.5836487,162.498314 70.5836487,162.498314" id="Fill-5" fill="#FFDCB6" fill-rule="nonzero"></path>
                    <path d="M140.582081,119.49876 C140.582081,119.49876 149.58188,109.498864 153.093801,103.12993 C155.684743,98.4299788 153.532791,98.1489817 153.532791,98.1489817 C151.452838,98.9689732 150.128867,101.082951 145.581969,106.498895 C141.96305,110.80985 134.471218,115.850798 134.582216,115.498802 L140.582081,119.49876 Z" id="Fill-6" fill="#FFDCB6" fill-rule="nonzero"></path>
                    <path d="M79.7143442,185.342777 C80.5153263,186.142769 81.3153084,222.142395 82.1142905,230.142312 C82.9142726,238.142229 86.1142009,251.742088 85.3152188,254.942055 C84.5152367,258.142022 90.5831009,256.497039 90.5831009,256.497039 C90.5831009,256.497039 90.5831009,251.497091 90.9140935,245.342155 C91.2690855,238.754223 96.514968,215.742462 97.3149501,207.742545 C100.514878,207.742545 111.59463,239.935211 114.913556,250.142105 C116.418522,254.770057 116.51452,254.942055 120.514431,254.142063 C123.65136,253.51507 119.713449,242.142188 118.913466,230.942304 C118.113484,219.74242 118.113484,217.342445 118.913466,207.742545 C119.713449,198.142644 119.713449,186.142769 118.113484,184.542785 C116.51452,182.942802 79.7143442,185.342777 79.7143442,185.342777" id="Fill-7" fill="#144199" fill-rule="nonzero"></path>
                    <path d="M20.4949703,206.987153 C20.4949703,206.987153 14.4321061,207.26215 13.8811184,200.372221 C13.3291308,193.482293 15.2880869,186.575364 18.0440252,185.748373 C20.8009635,184.921381 21.8679396,187.703353 23.0009142,189.289336 C26.540835,194.245285 27.9578032,206.991152 20.4949703,206.987153" id="Fill-8" fill="#373B3F" fill-rule="nonzero"></path>
                    <line x1="19.8357851" y1="204.230281" x2="19.8357851" y2="211.947201" id="Stroke-9" stroke="#757070" stroke-width="0.428" stroke-linecap="round" stroke-linejoin="round"></line>
                    <path d="M10.4062963,213.03979 C10.4062963,213.03979 0.999506902,213.467785 0.144526047,202.776896 C-0.710454807,192.088007 2.32847714,181.372118 6.60338141,180.090132 C10.8802856,178.807145 12.5362486,183.1221 14.2942092,185.582075 C19.7860862,193.271995 21.983037,213.04579 10.4062963,213.03979" id="Fill-10" fill="#4F5256" fill-rule="nonzero"></path>
                    <line x1="10.998083" y1="204.257681" x2="11.2620771" y2="220.73651" id="Stroke-11" stroke="#757070" stroke-width="0.428" stroke-linecap="round" stroke-linejoin="round"></line>
                    <path d="M7.19936807,207.082852 C7.19936807,207.082852 9.07432608,210.955811 10.998283,210.849812" id="Stroke-12" stroke="#757070" stroke-width="0.428" stroke-linecap="round" stroke-linejoin="round"></path>
                    <path d="M11.0791812,208.512537 C11.2911764,208.18054 11.9311621,207.332549 13.2181333,206.834554" id="Stroke-13" stroke="#757070" stroke-width="0.428" stroke-linecap="round" stroke-linejoin="round"></path>
                    <path d="M80.4584276,22.4997666 C80.4584276,24.9847408 78.4434727,26.9997199 75.9585284,26.9997199 C73.473584,26.9997199 71.4586291,24.9847408 71.4586291,22.4997666 C71.4586291,20.0147923 73.473584,17.9998133 75.9585284,17.9998133 C78.4434727,17.9998133 80.4584276,20.0147923 80.4584276,22.4997666" id="Fill-14" fill="#504D43" fill-rule="nonzero"></path>
                    <path d="M80.4584276,45.9995228 C80.4584276,48.484497 78.4434727,50.4994761 75.9585284,50.4994761 C73.473584,50.4994761 71.4586291,48.484497 71.4586291,45.9995228 C71.4586291,43.5145485 73.473584,41.4995694 75.9585284,41.4995694 C78.4434727,41.4995694 80.4584276,43.5145485 80.4584276,45.9995228" id="Fill-15" fill="#504D43" fill-rule="nonzero"></path>
                    <path d="M80.4584276,69.499279 C80.4584276,71.9842532 78.4434727,73.9992323 75.9585284,73.9992323 C73.473584,73.9992323 71.4586291,71.9842532 71.4586291,69.499279 C71.4586291,67.0143047 73.473584,64.9993256 75.9585284,64.9993256 C78.4434727,64.9993256 80.4584276,67.0143047 80.4584276,69.499279" id="Fill-16" fill="#504D43" fill-rule="nonzero"></path>
                    <line x1="75.9585284" y1="29.4996939" x2="75.9585284" y2="30.4996836" id="Stroke-17" stroke="#504D43" stroke-linecap="round" stroke-linejoin="round"></line>
                    <line x1="75.9585284" y1="33.9000483" x2="75.9585284" y2="37.299013" id="Stroke-18" stroke="#504D43" stroke-linecap="round" stroke-linejoin="round" stroke-dasharray="1.7,3.4"></line>
                    <line x1="75.9585284" y1="38.9995954" x2="75.9585284" y2="39.999585" id="Stroke-19" stroke="#504D43" stroke-linecap="round" stroke-linejoin="round"></line>
                    <line x1="75.9585284" y1="52.4994553" x2="75.9585284" y2="53.4994449" id="Stroke-20" stroke="#504D43" stroke-linecap="round" stroke-linejoin="round"></line>
                    <line x1="75.9585284" y1="56.8998097" x2="75.9585284" y2="60.2987744" id="Stroke-21" stroke="#504D43" stroke-linecap="round" stroke-linejoin="round" stroke-dasharray="1.7,3.4"></line>
                    <line x1="75.9585284" y1="61.9993568" x2="75.9585284" y2="62.9993464" id="Stroke-22" stroke="#504D43" stroke-linecap="round" stroke-linejoin="round"></line>
                    <polygon id="Fill-23" fill="#696866" fill-rule="nonzero" points="85.5829128 24.9995406 120.582129 24.9995406 120.582129 19.9995925 85.5829128 19.9995925"></polygon>
                    <polygon id="Fill-24" fill="#696866" fill-rule="nonzero" points="85.5829128 47.4993072 120.582129 47.4993072 120.582129 42.4993591 85.5829128 42.4993591"></polygon>
                    <polygon id="Fill-25" fill="#696866" fill-rule="nonzero" points="85.5829128 68.4990893 105.582465 68.4990893 105.582465 63.4991412 85.5829128 63.4991412"></polygon>
                    <path d="M155.970437,41.4995694 C145.769665,41.4995694 137.470851,33.2006555 137.470851,22.9997614 C137.470851,12.7988672 145.769665,4.49995331 155.970437,4.49995331 C166.171208,4.49995331 174.470022,12.7988672 174.470022,22.9997614 C174.470022,33.2006555 166.171208,41.4995694 155.970437,41.4995694" id="Fill-26" fill="#696866" fill-rule="nonzero"></path>
                    <path d="M155.970437,3.49996369 C145.218677,3.49996369 136.470873,12.2478729 136.470873,22.9997614 C136.470873,33.7516498 145.218677,42.4995591 155.970437,42.4995591 C166.723196,42.4995591 175.47,33.7516498 175.47,22.9997614 C175.47,12.2478729 166.723196,3.49996369 155.970437,3.49996369 M155.970437,5.49994294 C165.63522,5.49994294 173.470045,13.3348617 173.470045,22.9997614 C173.470045,32.6646611 165.63522,40.4995798 155.970437,40.4995798 C146.305653,40.4995798 138.470829,32.6646611 138.470829,22.9997614 C138.470829,13.3348617 146.305653,5.49994294 155.970437,5.49994294" id="Fill-27" fill="#232324" fill-rule="nonzero"></path>
                    <line x1="155.970437" y1="5.49994294" x2="155.970437" y2="7.49992219" id="Stroke-28" stroke="#504D43" stroke-linecap="round"></line>
                    <line x1="155.970437" y1="37.9996058" x2="155.970437" y2="39.999585" id="Stroke-29" stroke="#504D43" stroke-linecap="round"></line>
                    <line x1="168.168364" y1="34.9469374" x2="165.339427" y2="32.1189668" id="Stroke-30" stroke="#504D43" stroke-linecap="round"></line>
                    <line x1="146.601546" y1="13.3807612" x2="143.77361" y2="10.5527905" id="Stroke-31" stroke="#504D43" stroke-linecap="round"></line>
                    <line x1="143.77341" y1="34.9469374" x2="146.601346" y2="32.1189668" id="Stroke-32" stroke="#504D43" stroke-linecap="round"></line>
                    <line x1="165.339327" y1="13.3807612" x2="168.168264" y2="10.5527905" id="Stroke-33" stroke="#504D43" stroke-linecap="round"></line>
                    <line x1="173.22005" y1="22.749764" x2="171.220095" y2="22.749764" id="Stroke-34" stroke="#504D43" stroke-linecap="round"></line>
                    <line x1="140.720778" y1="22.749764" x2="138.720823" y2="22.749764" id="Stroke-35" stroke="#504D43" stroke-linecap="round"></line>
                    <polyline id="Stroke-36" stroke="#504D43" stroke-linecap="round" points="156.081734 18.9998029 156.081734 22.9997614 160.081645 26.9997199"></polyline>
                    <path d="M152.989103,96.2207017 C152.989103,96.2207017 153.58909,93.8207266 151.989126,94.0207245 C150.733154,94.1777229 149.061191,100.411658 150.46716,101.567646 C151.871128,102.721634 153.923082,103.823623 155.789041,100.420658 C157.426004,97.4356891 157.388005,96.4206996 156.589023,95.42071 C155.38505,93.9167256 152.989103,96.2207017 152.989103,96.2207017" id="Fill-37" fill="#FFDCB6" fill-rule="nonzero"></path>
                    <path d="M104.514589,108.543774 C104.514589,108.543774 103.713607,113.343724 104.514589,116.543691 C105.314571,119.743658 96.514768,119.743658 96.514768,119.743658 C96.514768,119.743658 94.1148218,110.143757 98.9137143,107.743782 C103.713607,105.343807 104.514589,108.543774 104.514589,108.543774" id="Fill-38" fill="#FFDCB6" fill-rule="nonzero"></path>
                    <path d="M77.314998,132.543525 C77.314998,132.543525 91.6776764,114.760709 113.314192,115.743699 C130.913798,116.543691 131.72178,117.358682 135.582693,113.498722 C137.181657,111.898739 138.451629,111.653742 142.582536,117.498681 C143.381519,119.098664 143.181523,121.498639 137.582648,125.498598 C131.982774,129.498556 125.313923,130.942541 125.313923,130.942541 C125.313923,130.942541 116.559119,163.8362 120.583029,184.497986 C121.213015,187.734952 117.783092,187.497955 114.583163,187.497955 C111.382235,187.497955 84.5148368,189.342936 77.314998,187.742952 C70.1151592,186.142969 66.9152309,145.343392 77.314998,132.543525" id="Fill-39" fill="#FFBA2A" fill-rule="nonzero"></path>
                </g>
                <g id="Fill-40-Clipped" transform="translate(95.940432, 107.116114)">
                    <mask id="mask-2" fill="white">
                        <use xlink:href="#path-1"></use>
                    </mask>
                    <g id="path-1"></g>
                    <path d="M9.16997386,1.61013362 C9.16997386,1.61013362 4.42779559,7.47511767 -1.26281835,7.47511767 L-1.26281835,0.63263628 C-1.26281835,-0.344861062 8.22153821,0.63263628 8.22153821,0.63263628 L9.16997386,1.61013362 Z" id="Fill-40" fill="#CCAF93" fill-rule="nonzero" mask="url(#mask-2)"></path>
                </g>
                <g id="编组" transform="translate(83.947878, 82.542417)" fill-rule="nonzero">
                    <path d="M15.1428254,10.8385925 C15.1428254,10.8385925 19.193455,13.2472132 20.0035809,14.8529604 C21.6238328,14.0500868 23.2440846,14.0500868 23.2440846,15.6558339 C23.2440846,17.2615811 22.4339587,18.0644547 22.4339587,18.0644547 C22.4339587,18.0644547 26.4845883,21.2759489 24.8653491,24.4874432 C23.2440846,27.6989375 16.7640899,28.5018111 12.7134604,26.0931904 C8.66283078,23.6845697 5.42131446,17.2615811 5.42131446,17.2615811 L15.1428254,10.8385925 Z" id="Fill-42" fill="#FFDCB6"></path>
                    <path d="M18.7889997,0 C18.7889997,0 13.9272315,3.21149429 11.4978664,4.01436786 C9.06647602,4.81724143 -2.6793371,10.8387932 0.561166563,22.0790232 C3.80065757,33.3192532 13.5231812,30.9106325 14.3333071,26.8962647 C15.1424204,22.8818968 12.7130553,22.0790232 12.7130553,22.0790232 C12.7130553,22.0790232 12.7869793,24.3712273 10.2826775,22.8818968 C6.23204797,20.4722725 8.73128642,18.0194937 10.7566012,19.0230857 C12.0376128,19.6583594 15.9525463,15.6560347 16.7636849,11.6416668 C17.5738108,7.62729894 22.4345663,5.21867822 18.7889997,0" id="Fill-44" fill="#191F35"></path>
                    <path d="M18.7889997,0 C18.7889997,0 13.9272315,3.21149429 11.4978664,4.01436786 C9.06647602,4.81724143 -2.6793371,10.8387932 0.561166563,22.0790232 C3.80065757,33.3192532 13.5231812,30.9106325 14.3333071,26.8962647 C15.1424204,22.8818968 12.7130553,22.0790232 12.7130553,22.0790232 C12.7130553,22.0790232 12.7869793,24.3712273 10.2826775,22.8818968 C6.23204797,20.4722725 8.73128642,18.0194937 10.7566012,19.0230857 C12.0376128,19.6583594 15.9525463,15.6560347 16.7636849,11.6416668 C17.5738108,7.62729894 22.4345663,5.21867822 18.7889997,0" id="Fill-44备份" fill="#FFFFFF" opacity="0.119999997"></path>
                </g>
            </g>
        </g>
    </g>
</svg>