<?xml version="1.0" encoding="UTF-8"?>
<svg width="359px" height="188px" viewBox="0 0 359 188" version="1.1" xmlns="http://www.w3.org/2000/svg" xmlns:xlink="http://www.w3.org/1999/xlink">
    <title>no-visit-record</title>
    <defs>
        <path d="M191.722557,0 C161.531659,0.00700212576 144.298716,18.9707593 132.142757,37.9355168 L132.142757,37.9355168 C116.995808,61.5646903 109.722832,85.1938638 95.0508814,72.1479032 L95.0508814,72.1479032 C68.0509719,48.1406149 40.0510658,59.1439554 19.0511362,80.1513329 L19.0511362,80.1513329 C-1.94879347,101.15671 0.0511998284,118.161872 0.0511998284,118.161872 L0.0511998284,118.161872 L0.0511998284,167.176753 L164.05065,170.178664 L358.05,170.178664 C358.05,170.178664 337.19507,46.1400075 306.050174,46.1400075 L306.050174,46.1400075 C282.050255,46.1400075 286.050241,78.1497253 264.050315,77.1494216 L264.050315,77.1494216 C228.859433,75.549936 248.050369,3.1269493 196.050543,0.126038264 L196.050543,0.126038264 C194.587548,0.0420127545 193.155553,0 191.748557,0 L191.748557,0 L191.722557,0 Z" id="path-1"></path>
        <linearGradient x1="49.9181828%" y1="58.3193817%" x2="50%" y2="38.7048275%" id="linearGradient-3">
            <stop stop-color="#232324" offset="0%"></stop>
            <stop stop-color="#373B3F" offset="100%"></stop>
        </linearGradient>
        <path d="M1.8046681,14.9194792 C5.86314159,15.9141775 7.89288577,11.9353844 7.89288577,11.9353844 L7.89288577,11.9353844 L7.89288577,3.97779834 L1.8046681,0 C1.8046681,0 -2.25583513,13.9247809 1.8046681,14.9194792 L1.8046681,14.9194792 Z" id="path-4"></path>
    </defs>
    <g id="空状态插画-暗色" stroke="none" stroke-width="1" fill="none" fill-rule="evenodd">
        <g id="旧版缺省状态-browser-too-old备份-5" transform="translate(-221.000000, -306.000000)">
            <g id="no-visit-record" transform="translate(221.000000, 306.000000)">
                <g id="Fill-2" transform="translate(93.279559, 25.131870)" fill="#E3C29D" fill-rule="nonzero">
                    <path d="M1.36839207,3.07872233 C1.36839207,3.07872233 -0.696279709,0.089854145 1.36839207,0.089854145 C2.35580087,0.089854145 4.33061845,2.08243293 4.33061845,2.08243293 C4.33061845,2.08243293 9.13436222,-1.93460591 11.199034,1.18975764 C13.2686428,4.32009891 12.2308762,7.43649214 7.06969043,8.47861085 C1.90850468,9.51973327 2.35580087,10.0527481 2.35580087,10.0527481 C2.35580087,10.0527481 0.762123076,8.99369247 0.380983283,8.0601693 C-0.367472581,6.22400795 -0.00015651075,3.76815459 1.36839207,3.07872233" id="路径"></path>
                </g>
                <g id="Fill-3-Clipped">
                    <mask id="mask-2" fill="white">
                        <use xlink:href="#path-1"></use>
                    </mask>
                    <g id="path-1"></g>
                    <path d="M191.722757,-0.490148803 C161.531859,-0.483146677 144.298916,18.4806105 132.142957,37.4453679 L132.142957,37.4453679 C116.996008,61.0745415 109.723032,84.703715 95.0510814,71.6577544 L95.0510814,71.6577544 C68.0511719,47.6504661 40.0512658,58.6538066 19.0513361,79.6611841 L19.0513361,79.6611841 C-1.94859347,100.666561 0.0513998277,117.671724 0.0513998277,117.671724 L0.0513998277,117.671724 L0.0513998277,166.686604 L164.05085,169.688515 L358.0502,169.688515 C358.0502,169.688515 337.19527,45.6498587 306.050374,45.6498587 L306.050374,45.6498587 C282.050455,45.6498587 286.050441,77.6595765 264.050515,76.6592728 L264.050515,76.6592728 C228.859633,75.0597872 248.050569,2.6368005 196.050743,-0.364110539 L196.050743,-0.364110539 C194.587748,-0.448136049 193.155753,-0.490148803 191.748757,-0.490148803 L191.748757,-0.490148803 L191.722757,-0.490148803 Z" id="Fill-3" fill="url(#linearGradient-3)" fill-rule="nonzero" mask="url(#mask-2)"></path>
                </g>
                <g id="编组" transform="translate(43.769639, 15.079122)">
                    <path d="M11.6016692,77.3033964 C11.6016692,77.3033964 14.56464,76.4291508 14.3988095,78.4364188 C14.2689423,80.0100609 6.57780536,82.4229789 5.06335367,80.7304393 C3.54890197,79.0369006 2.06841555,76.5350594 6.2151761,74.0292217 C9.85445547,71.8291201 11.1231584,71.8241244 12.4118409,72.7693088 C14.3508586,74.1920811 11.6016692,77.3033964 11.6016692,77.3033964" id="Fill-5" fill="#E3C29D" fill-rule="nonzero"></path>
                    <path d="M14.6581444,34.1707148 C14.6581444,34.1707148 3.6693788,47.159507 0.672442721,63.1457128 C-2.32449336,79.1319187 5.66733618,81.1301944 5.66733618,81.1301944 C5.66733618,81.1301944 12.660187,81.1301944 6.66631488,73.1370915 C3.60944008,69.0616081 7.66529357,55.1526099 12.660187,52.1551963 C17.6550805,49.1577827 14.6581444,34.1707148 14.6581444,34.1707148" id="Fill-7" fill="#E3C29D" fill-rule="nonzero"></path>
                    <path d="M18.6540592,160.061223 C18.6540592,160.061223 16.4563061,163.65812 15.6571231,166.056051 C13.6591657,172.050878 16.4822795,172.050878 18.8798284,172.050878 L34.463896,172.050878 C34.463896,172.050878 35.7855448,170.688054 34.463896,168.853637 C34.042327,168.269141 32.8655301,167.255016 31.2671642,167.255016 C29.6687982,167.255016 24.8936801,167.260012 25.6728835,164.057775 C26.6458887,160.061223 20.8777858,160.061223 20.8777858,160.061223 L18.6540592,160.061223 Z" id="Fill-9" fill="#603624" fill-rule="nonzero"></path>
                    <path d="M58.294233,123.811166 C58.294233,123.811166 56.4870805,130.154692 56.043534,132.642545 C55.0305696,138.317648 59.745749,137.131672 61.9425032,136.172499 C66.3380094,134.254155 74.3947726,130.738189 78.0580274,129.139568 C78.0580274,129.139568 78.7243462,127.362102 76.7793347,126.209097 C76.1599679,125.842413 74.6744866,125.383809 73.2099838,126.023257 C71.7454811,126.662705 67.3499748,128.580051 66.8045325,125.330855 C66.2580911,122.080659 60.8116593,123.584362 60.8116593,123.584362 L58.294233,123.811166 Z" id="Fill-11" fill="#603624" fill-rule="nonzero"></path>
                    <path d="M31.6407822,23.1801983 L31.6407822,31.1733012 C31.6407822,31.1733012 29.6428248,35.1698526 25.64691,34.1707148 C21.6509953,33.1715769 25.64691,19.1836468 25.64691,19.1836468 L31.6407822,23.1801983 Z" id="Fill-13" fill="#E3C29D" fill-rule="nonzero"></path>
                    <path d="M15.6571231,81.1301944 C15.6571231,81.1301944 6.81316474,120.688061 17.6550805,162.060361 C18.6540592,165.557344 24.6479313,165.057775 24.6479313,163.059499 C24.6479313,161.061223 23.6489526,136.082777 26.6458887,131.087088 C30.5598872,124.562717 32.6397609,107.107779 31.6407822,102.11209 C38.7804829,104.701855 48.9760594,99.5223242 51.9729955,96.0253417 C51.9729955,96.0253417 56.1157602,123.593554 57.6142282,125.09226 C59.1126962,126.590967 61.610143,125.09226 64.607079,124.093123 C66.3293183,123.519617 65.6060577,120.096571 64.607079,115.100882 C64.1175795,112.651995 64.607079,96.1172623 65.6060577,89.1232973 C66.2763724,84.432345 68.6029938,74.6357983 61.610143,75.1353672 C54.6172921,75.6349361 35.9893364,81.0382737 35.9893364,81.0382737 L15.6571231,81.1301944 Z" id="Fill-15" fill="#144199" fill-rule="nonzero"></path>
                    <path d="M19.6530379,31.1733012 C19.6530379,31.1733012 27.6448674,34.1707148 33.6387396,28.1758876 C33.6387396,28.1758876 46.6254626,30.1741633 51.620356,31.1733012 C53.6183134,33.1715769 58.6132069,47.159507 56.6152495,49.1577827 C54.6172921,51.1560585 47.6244413,49.1577827 47.6244413,49.1577827 C47.6244413,49.1577827 58.6132069,75.1353672 54.6172921,79.1319187 C50.6213773,83.1284701 28.6438461,91.121573 12.660187,85.1267458 C5.66733618,82.1293322 5.66733618,32.172439 19.6530379,31.1733012" id="Fill-17" fill="#FFBA2A" fill-rule="nonzero"></path>
                    <path d="M50.6213773,34.1707148 L56.6152495,34.1707148 C58.6132069,34.1707148 55.3035905,22.0251949 51.620356,20.1827847 C49.6223987,19.1836468 50.4595428,16.1862332 53.6183134,16.1862332 C55.6162708,16.1862332 58.3384877,17.4851124 59.6121856,19.1836468 C62.6091217,23.1801983 70.6009512,37.1681284 68.6029938,45.1612313 C66.6050364,53.1543342 54.6172921,46.1603691 54.6172921,46.1603691 L50.6213773,34.1707148 Z" id="Fill-19" fill="#E3C29D" fill-rule="nonzero"></path>
                    <path d="M47.5980682,14.9119328 L67.486735,8.49946598 C67.486735,8.49946598 67.7025144,10.4427891 67.676541,11.441927 C67.6495685,12.4410649 69.0001877,14.3004604 69.0001877,14.3004604 L48.4921542,18.9324636 L47.5980682,14.9119328 Z" id="Fill-21" fill="#2AC6CC" fill-rule="nonzero"></path>
                    <path d="M269.397711,10.4909476 C269.397711,16.284948 264.003226,29.3746532 259.807516,29.3746532 C255.611805,29.3746532 248.419158,16.284948 248.419158,10.4909476 C248.419158,4.6969471 253.115357,0 258.908435,0 C264.701512,0 269.397711,4.6969471 269.397711,10.4909476" id="Fill-23" fill="#7D4932" fill-rule="nonzero"></path>
                    <path d="M264.153073,10.4909476 C264.153073,13.3874482 261.804474,15.7364214 258.908435,15.7364214 C256.012395,15.7364214 253.663797,13.3874482 253.663797,10.4909476 C253.663797,7.5944469 256.012395,5.24547379 258.908435,5.24547379 C261.804474,5.24547379 264.153073,7.5944469 264.153073,10.4909476" id="Fill-25" fill="#EFE5DA" fill-rule="nonzero"></path>
                    <path d="M259.752272,36.6685594 C259.752272,36.6685594 259.817206,37.4938473 259.873148,38.9026317" id="Stroke-27" stroke="#D3BCA5"></path>
                    <path d="M259.919101,45.6032499 C259.633394,57.0613629 257.261818,75.4135272 244.960395,74.9229505 C212.631446,73.6320644 178.037813,70.4218344 180.488308,97.1167999 C182.071689,114.363918 184.780919,111.207641 241.398037,109.606023 C294.371879,108.107316 301.364729,112.103868 301.364729,131.087487 C301.364729,154.362404 148.663843,145.180327 86.0668396,143.892438" id="Stroke-29" stroke="#7D4932" stroke-dasharray="4.471,6.706"></path>
                    <path d="M82.7135678,143.829992 C81.9523461,143.817003 81.207108,143.806013 80.4778535,143.796021" id="Stroke-31" stroke="#D3BCA5"></path>
                    <path d="M84.5866529,143.076742 C84.5866529,149.698029 79.2191404,155.066396 72.5989086,155.066396 C65.9786768,155.066396 60.6111643,149.698029 60.6111643,143.076742 C60.6111643,135.083639 66.6050364,134.084501 72.5989086,131.087088 C78.5208543,128.125643 84.5866529,136.455455 84.5866529,143.076742" id="Fill-33" fill="#2AC6CC" fill-rule="nonzero"></path>
                    <path d="M48.4760706,16.5609099 C48.8297091,17.9027521 48.9036335,19.0457658 48.6419011,19.1157054 C48.3791697,19.184646 47.8796803,18.1535357 47.5260419,16.8116935 C47.1714044,15.4698514 47.09748,14.3268377 47.3602114,14.256898 C47.6229428,14.1889566 48.1224321,15.2200669 48.4760706,16.5609099" id="Fill-35" fill="#2AC6CC" fill-rule="nonzero"></path>
                    <polygon id="Fill-37" fill="#2AC6CC" fill-rule="nonzero" points="64.7055783 16.0262713 62.7216067 9.72670702 65.9053517 6.64636498 69.080106 16.7246686"></polygon>
                    <path d="M64.9456329,16.1100989 C65.4271406,15.9592291 65.3522172,14.3606085 64.7798025,12.5411785 C64.2063887,10.7207493 63.3512629,9.36891575 62.8697552,9.52078471 C62.3872485,9.67265366 62.4621719,11.2702751 63.0355857,13.0907043 C63.6089994,14.9101343 64.4641252,16.2619679 64.9456329,16.1100989" id="Fill-39" fill="#2AC6CC" fill-rule="nonzero"></path>
                    <path d="M69.0800061,16.7248684 C68.384717,16.9446788 67.1090212,14.866472 66.2329169,12.0828739 C65.3558136,9.29927584 65.2089637,6.86637514 65.9052518,6.64656481 C66.60154,6.42675448 67.8752378,8.50496124 68.7523411,11.2895585 C69.6294444,14.0721574 69.7752953,16.5060573 69.0800061,16.7248684" id="Fill-41" fill="#23A5A5" fill-rule="nonzero"></path>
                    <path d="M54.6172921,12.1896818 C54.6172921,12.1896818 55.6162708,14.1879575 56.6152495,14.1879575 C57.6142282,14.1879575 57.6142282,12.1896818 57.6142282,12.1896818 C57.6142282,12.1896818 57.6142282,13.1888196 58.6132069,13.1888196 C59.6121856,13.1888196 59.6121856,11.1905439 59.6121856,11.1905439 L58.1466838,10.2743345 L54.6172921,12.1896818 Z" id="Fill-43" fill="#E3C29D" fill-rule="nonzero"></path>
                    <path d="M31.2534781,101.475938 L31.2524792,101.475938 C30.9627753,101.382019 29.3554186,100.599695 28.0627402,99.4706688 C26.7350975,98.3836068 25.7630913,97.0397663 25.6941617,97.0877249 C25.5962618,97.1346844 26.4254141,98.5974223 27.7021089,99.820367 C28.9358476,101.085276 30.5961502,102.008479 30.930808,102.130374 L30.9417968,102.136369 C30.9467917,102.139366 30.9617764,102.14636 30.9827549,102.156351 L30.9837539,102.156351 C31.2574741,102.327204 33.0486429,103.00362 34.8418096,103.08555 C36.6339774,103.203448 38.2892851,102.773819 38.2683065,102.703879 C38.2503249,102.583982 36.6080039,102.824775 34.9197299,102.589977 C33.2254621,102.386153 31.5821421,101.688755 31.3024281,101.499918 L31.2924383,101.493923 C31.2864444,101.491925 31.2734577,101.484931 31.2534781,101.475938" id="Fill-45" fill="#0E3786" fill-rule="nonzero"></path>
                </g>
                <g id="Fill-47-Clipped" transform="translate(67.448297, 34.466565)">
                    <mask id="mask-5" fill="white">
                        <use xlink:href="#path-4"></use>
                    </mask>
                    <g id="path-4"></g>
                    <path d="M-1.24076006,9.94618684 C-1.24076006,9.94618684 8.90796084,9.94618684 8.90796084,5.9673938 C8.90796084,1.98860076 4.84847248,2.98329902 4.84847248,2.98329902 L0.788984116,4.97269554 L-2.25563215,8.95148858 L-1.24076006,9.94618684 Z" id="Fill-47" fill="#CCAF93" fill-rule="nonzero" mask="url(#mask-5)"></path>
                </g>
                <g id="编组" transform="translate(54.532665, 7.898588)" fill-rule="nonzero">
                    <path d="M19.695628,11.3976144 C19.695628,11.3976144 23.6541447,13.100546 24.9510918,18.8738261 C24.9510918,18.8738261 27.667206,18.7290669 27.9520495,20.5365468 C28.236893,22.3440268 26.5278319,22.8547053 26.0692541,23.0668178 C26.0692541,23.0668178 27.8146781,33.6865167 22.5046698,34.7551214 C18.6855446,35.5241549 16.6653779,35.5241549 12.6250444,32.5083373 C12.0250548,32.060991 11.4967812,31.367353 10.6755835,29.6272263 C10.3099333,28.8481401 7.9756306,29.2874441 7.5746275,28.4872472 C5.55446076,24.4661571 8.61804363,25.4302135 8.53319662,24.9768356 C8.13623386,22.8627475 7.83421893,22.3259319 7.5746275,21.4503396 C6.96453715,19.3905362 7.5746275,15.4187044 10.6048776,13.4081594 C16.6653779,9.38706931 19.695628,11.3976144 19.695628,11.3976144" id="Fill-49" fill="#E3C29D"></path>
                    <path d="M14.6452111,15.4187044 C14.6452111,15.4187044 23.7359615,12.4028869 24.7460448,6.37125175 C25.7561282,0.339616617 21.7157947,-0.665655905 17.6754612,0.339616617 C13.6351277,1.34488914 3.53429401,4.3607067 1.51412726,11.3976144 C-0.150490134,17.1980368 -1.51612285,30.4977923 3.53429401,33.5136098 C8.58471088,36.5294274 11.614961,31.5030648 11.614961,31.5030648 C11.614961,31.5030648 10.6048776,30.3077958 10.8089145,27.4819747 C10.8776001,26.5420449 8.83521155,24.4561044 8.58471088,23.4608846 C7.5746275,19.4397945 11.4381964,21.9469442 11.6987979,20.7506699 C12.2957572,18.0082865 13.2189734,15.7745709 14.6452111,15.4187044" id="Fill-51" fill="#191F35"></path>
                    <path d="M14.6452111,15.4187044 C14.6452111,15.4187044 23.7359615,12.4028869 24.7460448,6.37125175 C25.7561282,0.339616617 21.7157947,-0.665655905 17.6754612,0.339616617 C13.6351277,1.34488914 3.53429401,4.3607067 1.51412726,11.3976144 C-0.150490134,17.1980368 -1.51612285,30.4977923 3.53429401,33.5136098 C8.58471088,36.5294274 11.614961,31.5030648 11.614961,31.5030648 C11.614961,31.5030648 10.6048776,30.3077958 10.8089145,27.4819747 C10.8776001,26.5420449 8.83521155,24.4561044 8.58471088,23.4608846 C7.5746275,19.4397945 11.4381964,21.9469442 11.6987979,20.7506699 C12.2957572,18.0082865 13.2189734,15.7745709 14.6452111,15.4187044" id="Fill-51备份" fill="#FFFFFF" opacity="0.119999997"></path>
                </g>
            </g>
        </g>
    </g>
</svg>