<?xml version="1.0" encoding="UTF-8"?>
<svg width="402px" height="215px" viewBox="0 0 402 215" version="1.1" xmlns="http://www.w3.org/2000/svg" xmlns:xlink="http://www.w3.org/1999/xlink">
    <title>search-empty</title>
    <defs>
        <path d="M239.64821,-4.87979897e-15 C219.909488,0.0669289216 198.020122,9.22620179 183.041609,25.043404 L183.041609,25.043404 C165.972443,43.0662637 151.685815,56.929541 137.688139,50.21667 L137.688139,50.21667 C84.4969707,21.6879674 63.8384007,52.6870465 52.9912017,68.0407409 L52.9912017,68.0407409 C16.9971779,118.985638 0,196.90289 0,196.90289 L0,196.90289 C0,196.90289 336.455137,234.820621 356.611791,168.251317 L356.611791,168.251317 C376.768444,101.682014 312.5881,91.9043977 305.66025,83.2226178 L305.66025,83.2226178 C291.951526,66.0418637 295.230982,35.4753253 273.954514,13.0980899 L273.954514,13.0980899 C265.460925,4.16557617 253.26495,0.0429543825 240.076139,-4.87979897e-15 L240.076139,-4.87979897e-15 L239.64821,-4.87979897e-15 Z" id="path-1"></path>
        <linearGradient x1="49.9052768%" y1="58.3289543%" x2="50%" y2="31.3456839%" id="linearGradient-3">
            <stop stop-color="#232324" offset="0%"></stop>
            <stop stop-color="#373B3F" offset="100%"></stop>
        </linearGradient>
        <path d="M0,6.33978852 C0,6.33978852 5.13868537,13.3135559 5.78114652,11.4116193 L5.78114652,11.4116193 C6.42360767,9.50968278 10.2793784,5.07282141 10.2793784,4.43785196 L10.2793784,4.43785196 C10.2793784,4.43785196 8.99445612,0 6.42360767,0 L6.42360767,0 C3.85476691,0 0,6.33978852 0,6.33978852 L0,6.33978852 Z" id="path-4"></path>
        <path d="M17.879191,0.250238682 L0.425089925,14.0643953 C-0.0668724614,14.4530012 -0.143332873,15.1644641 0.256072173,15.6443336 L0.256072173,15.6443336 L0.326496236,15.7287278 C0.725901282,16.207616 1.45529337,16.2831783 1.9462497,15.8926096 L1.9462497,15.8926096 L19.4003508,2.07845305 C19.8913071,1.68886577 19.9677675,0.978384181 19.5683625,0.498514708 L19.5683625,0.498514708 L19.4979384,0.414120486 C19.2715754,0.141311256 18.9385702,0 18.6025468,0 L18.6025468,0 C18.3480141,0 18.0914693,0.0814502377 17.879191,0.250238682 L17.879191,0.250238682 Z" id="path-6"></path>
    </defs>
    <g id="空状态插画-暗色" stroke="none" stroke-width="1" fill="none" fill-rule="evenodd">
        <g id="旧版缺省状态-browser-too-old备份-2" transform="translate(-199.000000, -293.000000)">
            <g id="search-empty" transform="translate(199.000000, 293.000000)">
                <g id="Fill-2-Clipped">
                    <mask id="mask-2" fill="white">
                        <use xlink:href="#path-1"></use>
                    </mask>
                    <g id="path-1"></g>
                    <path d="M239.64821,0.495473808 C219.909488,0.56240273 198.020122,9.7216756 183.041609,25.5388778 L183.041609,25.5388778 C165.972443,43.5617375 151.685815,57.4250148 137.688139,50.7121438 L137.688139,50.7121438 C84.4969707,22.1834412 63.8384007,53.1825203 52.9912017,68.5362147 L52.9912017,68.5362147 C16.9971779,119.481111 0,197.398363 0,197.398363 L0,197.398363 C0,197.398363 336.455137,235.316095 356.611791,168.746791 L356.611791,168.746791 C376.768444,102.177488 312.5881,92.3998715 305.66025,83.7180916 L305.66025,83.7180916 C291.951526,66.5373375 295.230982,35.9707991 273.954514,13.5935637 L273.954514,13.5935637 C265.460925,4.66104998 253.26495,0.53842819 240.076139,0.495473808 L240.076139,0.495473808 L239.64821,0.495473808 Z" id="Fill-2" fill="url(#linearGradient-3)" fill-rule="nonzero" mask="url(#mask-2)"></path>
                </g>
                <g id="编组" transform="translate(74.158373, 77.045548)">
                    <polygon id="Fill-4" fill="#4F5256" fill-rule="nonzero" points="200.078931 48.4135081 162.205249 97.5902726 118.326862 52.0984699 156.200543 2.92170538"></polygon>
                    <polygon id="Fill-6" fill="#292C2F" fill-rule="nonzero" points="200.078931 48.4135081 225.411784 45.4925017 187.539103 94.6692662 162.205249 97.5902726"></polygon>
                    <polygon id="Fill-8" fill="#373B3F" fill-rule="nonzero" points="156.200843 2.92200497 181.533697 0 225.412084 45.4928013 200.079231 48.4138076"></polygon>
                    <polygon id="Fill-10" fill="#FFFFFF" fill-rule="nonzero" points="153.936369 50.4721934 158.419882 55.505312 160.66264 48.7944872"></polygon>
                    <line x1="169.753465" y1="56.0866172" x2="170.10474" y2="56.4421312" id="Stroke-12" stroke="#FFFFFF" stroke-width="2" stroke-linecap="round" stroke-linejoin="round"></line>
                    <line x1="170.786474" y1="57.1368813" x2="174.541417" y2="60.9536629" id="Stroke-14" stroke="#FFFFFF" stroke-width="2" stroke-linecap="round" stroke-linejoin="round" stroke-dasharray="0.974,0.974"></line>
                    <line x1="174.883385" y1="61.3001891" x2="175.233659" y2="61.6567017" id="Stroke-16" stroke="#FFFFFF" stroke-width="2" stroke-linecap="round" stroke-linejoin="round"></line>
                    <line x1="149.453355" y1="34.254167" x2="149.785616" y2="34.6276564" id="Stroke-18" stroke="#FFFFFF" stroke-width="2" stroke-linecap="round" stroke-linejoin="round"></line>
                    <line x1="150.411106" y1="35.330795" x2="153.850802" y2="39.1995056" id="Stroke-20" stroke="#FFFFFF" stroke-width="2" stroke-linecap="round" stroke-linejoin="round" stroke-dasharray="0.9420000000000001,0.9419999999999999"></line>
                    <line x1="154.163046" y1="39.5515243" x2="154.495307" y2="39.9250137" id="Stroke-22" stroke="#FFFFFF" stroke-width="2" stroke-linecap="round" stroke-linejoin="round"></line>
                    <path d="M20.5115041,92.6655058 C20.5115041,92.6655058 14.4437488,92.9401303 13.8923167,86.0595376 C13.3398837,79.1789449 15.3004202,72.2813754 18.0585817,71.4555046 C20.8177441,70.6296337 21.885581,73.4078353 23.0194696,74.9916698 C26.562246,79.9409031 27.9803574,92.6695003 20.5115041,92.6655058" id="Fill-24" fill="#373B3F" fill-rule="nonzero"></path>
                    <line x1="19.8517871" y1="89.91237" x2="19.8517871" y2="97.6188335" id="Stroke-26" stroke="#757070" stroke-width="0.428" stroke-linecap="round" stroke-linejoin="round"></line>
                    <path d="M10.4146912,98.7099417 C10.4146912,98.7099417 1.00031323,99.1373574 0.14464264,88.4609544 C-0.711027947,77.7865486 2.33035558,67.0851798 6.60870851,65.8049301 C10.889063,64.5236819 12.5463618,68.8327904 14.3057407,71.2894316 C19.8020481,78.968932 22.0007712,98.7159335 10.4146912,98.7099417" id="Fill-28" fill="#4F5256" fill-rule="nonzero"></path>
                    <line x1="11.0069554" y1="89.9397325" x2="11.2711625" y2="106.396233" id="Stroke-30" stroke="#757070" stroke-width="0.428" stroke-linecap="round" stroke-linejoin="round"></line>
                    <path d="M7.20517596,92.7610751 C7.20517596,92.7610751 9.08164654,96.6287871 11.0071556,96.5229319" id="Stroke-32" stroke="#757070" stroke-width="0.428" stroke-linecap="round" stroke-linejoin="round"></path>
                    <path d="M11.0880189,94.1888231 C11.3001852,93.8572764 11.9406872,93.0104342 13.2286966,92.5131142" id="Stroke-34" stroke="#757070" stroke-width="0.428" stroke-linecap="round" stroke-linejoin="round"></path>
                </g>
                <text id="︖" fill="#2AC6CC" fill-rule="nonzero" font-family="PingFangSC-Regular, PingFang SC" font-size="13.3495" font-weight="normal">
                    <tspan x="198.245155" y="51.0942123">︖</tspan>
                </text>
                <g id="编组" transform="translate(114.541645, 52.831233)">
                    <line x1="100.746944" y1="124.144382" x2="109.416243" y2="126.142602" id="Stroke-36" stroke="#757070" stroke-width="0.428" stroke-linecap="round" stroke-linejoin="round"></line>
                    <line x1="100.413856" y1="128.474524" x2="103.081563" y2="131.804558" id="Stroke-38" stroke="#757070" stroke-width="0.428" stroke-linecap="round" stroke-linejoin="round"></line>
                    <path d="M287.088355,76.3539557 C287.088355,81.3205312 283.058286,85.3459452 278.085968,85.3459452 C273.113649,85.3459452 269.083581,81.3205312 269.083581,76.3539557 C269.083581,71.3873801 273.113649,67.3619661 278.085968,67.3619661 C283.058286,67.3619661 287.088355,71.3873801 287.088355,76.3539557" id="Fill-40" fill="#4F5256" fill-rule="nonzero"></path>
                    <path d="M278.085968,98.3343745 L278.085968,98.3343745 C277.398785,98.3343745 276.835636,97.7728747 276.835636,97.0854871 L276.835636,78.601953 C276.835636,77.9155645 277.398785,77.3530656 278.085968,77.3530656 C278.77315,77.3530656 279.336299,77.9155645 279.336299,78.601953 L279.336299,97.0854871 C279.336299,97.7728747 278.77315,98.3343745 278.085968,98.3343745" id="Fill-42" fill="#4F5256" fill-rule="nonzero"></path>
                    <path d="M7.21534362,147.840073 C7.21534362,147.840073 3.01723045,152.931537 1.61285807,155.033664 C-1.5869904,159.829392 3.2142827,160.62868 5.61391899,160.62868 L23.2195873,160.62868 C23.2195873,160.62868 24.5429382,159.265894 23.2195873,157.432527 C22.7974754,156.848048 21.6181627,155.832952 20.0187386,155.832952 C18.4183142,155.832952 13.6160408,155.832952 14.4172533,152.6358 C15.2174655,149.439648 9.61497991,148.639361 9.61497991,148.639361 L7.21534362,147.840073 Z" id="Fill-44" fill="#603624" fill-rule="nonzero"></path>
                    <path d="M43.2248919,148.639161 C43.2248919,148.639161 38.4236188,155.832752 37.6224064,158.231615 C36.6111382,161.263914 40.0240432,161.428767 42.4246797,161.428767 L62.4299843,161.428767 C62.4299843,161.428767 64.0304087,161.428767 62.4299843,158.231615 C61.6287719,156.63204 58.4289234,156.63204 56.828499,156.63204 C55.2280747,156.63204 50.4268016,156.63204 51.2270137,153.435888 C52.0272259,150.238736 46.4257406,149.439448 46.4257406,149.439448 L43.2248919,148.639161 Z" id="Fill-46" fill="#603624" fill-rule="nonzero"></path>
                    <path d="M28.4211666,92.2899591 C28.4211666,92.2899591 32.8213333,111.073226 48.0263651,120.663683 C50.4270016,122.263258 48.825577,124.660122 48.0263651,127.058985 C47.2261529,129.456849 37.6226064,147.840472 38.4238189,151.836912 C39.224031,155.833352 52.027426,155.833352 52.027426,155.833352 C52.027426,155.833352 53.6268501,152.635201 55.2282747,147.840472 C56.8276988,143.044744 66.4312453,123.861833 64.0306087,118.266818 C61.6289719,112.670803 49.6257892,97.4853309 46.4259407,91.8903152 C43.225092,86.2952995 41.6236673,78.3024199 41.6236673,78.3024199 L8.01575586,65.5138126 C8.01575586,65.5138126 0.624796077,84.7416835 3.21448276,95.087467 C7.21554368,111.073226 15.2176655,111.872514 16.8170896,117.46753 C18.3564978,122.846738 8.81496778,145.442608 5.61411904,149.439048 C5.61411904,149.439048 9.39012029,152.686155 13.3911812,154.284731 C17.3922421,155.882308 30.421697,129.456849 32.0221214,123.062546 C33.6215455,116.667243 30.421697,111.872514 29.6204846,108.674363 C28.8202724,105.47821 25.2203178,98.6832637 27.6199541,93.8885351" id="Fill-48" fill="#144199" fill-rule="nonzero"></path>
                    <path d="M62.4037774,60.3681965 C61.8956426,68.5549034 70.9100329,75.8953642 72.9585761,78.4540848 C74.3899556,80.2404934 71.9343045,80.5002619 71.9343045,80.5002619 C54.5156858,78.4540848 55.3339027,59.3870705 55.3339027,59.3870705 C55.3339027,59.3870705 62.5488158,58.0332766 62.4037774,60.3681965" id="Fill-50" fill="#E3C29D" fill-rule="nonzero"></path>
                    <path d="M65.7630681,10.6332027 C65.7630681,10.6332027 71.5255961,15.1092153 76.0057841,13.1919233 C80.4879726,11.2736322 81.1271421,8.71491163 78.5664631,8.07548126 C76.0057841,7.43705 69.6040866,4.23989817 67.0434076,2.32160708 C64.4837289,0.403315977 51.6793337,-3.43426533 45.917806,6.79662053 C40.1562782,17.0275064 40.1562782,23.4228092 43.9972967,27.2593914 C47.8383152,31.0949744 47.1981455,23.4228092 47.1981455,23.4228092 L59.3623709,11.2736322 L65.7630681,10.6332027 Z" id="Fill-52" fill="#191F35" fill-rule="nonzero"></path>
                    <path d="M65.7630681,10.6332027 C65.7630681,10.6332027 71.5255961,15.1092153 76.0057841,13.1919233 C80.4879726,11.2736322 81.1271421,8.71491163 78.5664631,8.07548126 C76.0057841,7.43705 69.6040866,4.23989817 67.0434076,2.32160708 C64.4837289,0.403315977 51.6793337,-3.43426533 45.917806,6.79662053 C40.1562782,17.0275064 40.1562782,23.4228092 43.9972967,27.2593914 C47.8383152,31.0949744 47.1981455,23.4228092 47.1981455,23.4228092 L59.3623709,11.2736322 L65.7630681,10.6332027 Z" id="Fill-52备份" fill="#FFFFFF" fill-rule="nonzero" opacity="0.119999997"></path>
                    <path d="M51.6792337,33.6527958 C51.6792337,34.2932253 47.8382152,38.7682387 47.1990457,40.6865298 C46.5578757,42.6048209 41.437518,35.5710869 41.437518,35.5710869 C41.437518,35.5710869 45.2785364,29.1777824 47.8382152,29.1777824 C50.3998944,29.1777824 51.6792337,33.6527958 51.6792337,33.6527958" id="Fill-54" fill="#E3C29D" fill-rule="nonzero"></path>
                    <path d="M43.2248919,36.7388466 C43.2248919,36.7388466 36.7191668,28.3792937 30.421497,30.3455421 C17.6171018,34.3419819 5.81897336,47.8389581 1.61285807,59.9181974 C-4.78783914,78.3028195 8.81576799,74.3063797 25.6192236,79.9003963 C38.3455981,84.1376216 44.0251041,81.4999714 44.0251041,81.4999714 C44.0251041,81.4999714 46.4257406,65.5142122 53.62665,56.7210456 C53.62665,56.7210456 53.4015904,60.3677969 58.4029165,60.3677969 C61.6037652,60.3677969 61.4037122,60.3677969 63.4042427,59.3686869 C65.9349137,58.1058119 64.2044548,58.169755 63.4042427,53.3740272 C62.6040305,48.5792986 65.6298328,44.7317262 60.0293478,42.3348614 C56.7404757,40.9261164 45.6245282,39.9359985 43.2248919,36.7388466" id="Fill-56" fill="#FFBA2A" fill-rule="nonzero"></path>
                    <path d="M37.6228065,56.7210456 C38.0179112,69.528636 47.6254588,72.3081598 50.8263075,76.3045996 C53.0629005,79.0961128 49.2268834,79.5017515 49.2268834,79.5017515 C27.3940942,76.353556 24.3672916,61.4168623 27.3940942,54.3731372 C28.5243939,51.7444789 37.3967465,49.3775875 37.6228065,56.7210456" id="Fill-58" fill="#E3C29D" fill-rule="nonzero"></path>
                    <path d="M52.6179826,80.5621069 L69.9705838,66.4976361 C70.4597135,66.1009895 70.5347334,65.3776339 70.1386283,64.88807 L70.0676095,64.8031457 C69.6715045,64.3135818 68.9463122,64.2386485 68.4581828,64.6362943 L51.1045813,78.700765 C50.6154516,79.0964126 50.5404317,79.8207673 50.9365367,80.309332 L51.0075556,80.3952555 C51.4036606,80.8828211 52.1288529,80.9587535 52.6179826,80.5621069" id="Fill-60" fill="#9E5A2D" fill-rule="nonzero"></path>
                    <path d="M48.4264712,79.5015516 C48.4264712,79.5015516 48.4264712,81.8984164 53.2277443,81.8984164 C54.3350379,81.8984164 53.3477761,80.0740416 54.0279564,80.3008396 C56.428593,81.1001276 55.4873434,77.3384786 54.4280625,76.7030447 C52.4275321,75.5051119 50.0268955,75.5051119 50.0268955,75.5051119 L48.4264712,79.5015516 Z" id="Fill-62" fill="#E3C29D" fill-rule="nonzero"></path>
                    <path d="M69.2141832,79.5932699 C69.2141832,79.5932699 68.4049686,81.3497052 72.355016,83.1630898 C73.2662577,83.5817168 73.0692054,81.8722397 73.5523335,82.2948632 C75.2577857,83.7875335 75.7509165,80.6773042 75.0937422,79.812075 C73.8534134,78.1775311 71.8778895,77.2713384 71.8778895,77.2713384 L69.2141832,79.5932699 Z" id="Fill-64" fill="#E3C29D" fill-rule="nonzero"></path>
                </g>
                <g id="Fill-66-Clipped" transform="translate(156.393400, 82.181918)">
                    <mask id="mask-5" fill="white">
                        <use xlink:href="#path-4"></use>
                    </mask>
                    <use id="path-4" fill="#D9B791" xlink:href="#path-4"></use>
                    <path d="M-0.0391499764,3.18891363 C-0.0391499764,3.18891363 7.99161442,7.15128145 11.0031511,5.17009754 C14.0146877,3.18891363 7.99161442,0.217137757 7.99161442,0.217137757 L2.97238667,-0.773454199 L-0.0391499764,3.18891363 Z" id="Fill-66" fill="#CCAF93" fill-rule="nonzero" mask="url(#mask-5)"></path>
                </g>
                <path d="M162.265596,69.8940026 C162.265596,69.8940026 157.832372,67.9940026 157.199054,71.7940026 C156.564747,75.5940026 160.364653,76.8606693 160.364653,76.8606693 C160.364653,76.8606693 158.781359,81.6106692 162.581265,85.4106692 C166.381172,89.2106692 172.715338,86.6773359 175.24762,83.5106692 C177.37814,80.8467109 178.414208,74.6440026 180.948468,70.8440026 C182.703946,68.2087422 182.848422,63.243013 178.414208,61.9773359 C175.690942,61.1985339 172.247277,61.8100964 169.54776,63.243013 C167.370731,64.4008255 162.265596,69.8940026 162.265596,69.8940026" id="Fill-68" fill="#E3C29D" fill-rule="nonzero"></path>
                <g id="Fill-70-Clipped" transform="translate(165.204296, 117.402740)">
                    <mask id="mask-7" fill="white">
                        <use xlink:href="#path-6"></use>
                    </mask>
                    <g id="path-6"></g>
                    <path d="M16.8198119,-0.0164863132 C16.8198119,-0.0164863132 15.8137539,1.94617002 17.82587,3.90882635 C19.8379861,5.87148268 19.8379861,1.94617002 19.8379861,1.94617002 L16.8198119,-0.0164863132 Z" id="Fill-70" fill="#54301C" fill-rule="nonzero" mask="url(#mask-7)"></path>
                </g>
                <g id="编组" transform="translate(141.708574, 98.324795)">
                    <path d="M41.56016,21.0923833 C44.2562593,24.1286302 51.3710768,22.1911772 57.4503199,16.7624922 C63.5305645,11.3348115 66.2727337,4.47287328 63.575633,1.43662631 C60.8805353,-1.60162943 53.7667192,0.336827949 47.6864747,5.76450862 C41.6072316,11.1931937 38.8650623,18.0551319 41.56016,21.0923833" id="Fill-72" fill="#9E5A2D" fill-rule="nonzero"></path>
                    <path d="M43.3401664,19.4730181 C45.1799637,21.5460626 50.6743175,19.6538068 55.6128261,15.245574 C60.5503332,10.8373411 63.0601492,5.58341853 61.220352,3.50936957 C59.3795531,1.43632499 53.8841979,3.32958518 48.9476922,7.73681367 C44.0101851,12.1460509 41.4993676,17.4009779 43.3401664,19.4730181" id="Fill-74" fill="#B9E8EF" fill-rule="nonzero"></path>
                    <line x1="55.229343" y1="6.95550486" x2="54.2278203" y2="11.9774152" id="Stroke-76" stroke="#FFFFFF" stroke-linecap="round"></line>
                    <line x1="50.7224907" y1="12.4796062" x2="50.2217293" y2="14.9905614" id="Stroke-78" stroke="#FFFFFF" stroke-linecap="round"></line>
                    <path d="M0.535785384,48.9610728 C0.574844771,48.8847398 1.27891526,47.2797372 2.21734207,45.8404577 C2.68405167,45.1223246 3.21686177,44.450393 3.71261553,44.0596883 C4.2003571,43.6468873 4.65604995,43.6237865 4.65204386,43.5735674 C4.6670667,43.5464491 4.1562901,43.4952256 3.58742519,43.8839215 C3.0155557,44.2485122 2.41464205,44.9103999 1.89385022,45.6184893 C0.84826048,47.0406943 0.077087967,48.6456968 0.0350240117,48.7270518 C-0.0410917168,48.8927748 0.0109874659,49.0805943 0.15120065,49.1418616 C0.291413834,49.2031289 0.460671178,49.1227783 0.535785384,48.9610728" id="Fill-80" fill="#144199" fill-rule="nonzero"></path>
                </g>
            </g>
        </g>
    </g>
</svg>