<?xml version="1.0" encoding="UTF-8"?>
<svg width="238px" height="227px" viewBox="0 0 238 227" version="1.1" xmlns="http://www.w3.org/2000/svg" xmlns:xlink="http://www.w3.org/1999/xlink">
    <title>welcome-to-create</title>
    <defs>
        <path d="M11.5538906,0.222507196 C11.5538906,0.222507196 10.0623,5.95980037 7.33053276,6.70714516 L7.33053276,6.70714516 C4.59677808,7.45648554 0.870285869,7.20703801 0.124987427,9.7015133 L0.124987427,9.7015133 C-0.73459011,12.5781422 2.85874211,13.9421213 10.3107328,13.4422285 L10.3107328,13.4422285 C17.7637172,12.9443312 19.5037406,13.6926738 19.5037406,11.447646 L19.5037406,11.447646 C19.5037406,9.08088785 17.0184188,1.9686399 17.0184188,0.721402254 L17.0184188,0.721402254 C17.0184188,0.154657468 15.8885463,0 14.6563196,0 L14.6563196,0 C13.1786412,0 11.5538906,0.222507196 11.5538906,0.222507196 L11.5538906,0.222507196 Z" id="path-1"></path>
        <path d="M11.5534959,0.222507196 C11.5534959,0.222507196 10.0638188,5.95980037 7.32992836,6.70714516 L7.32992836,6.70714516 C4.59703172,7.45648554 0.870354487,7.20703801 0.125019041,9.7015133 L0.125019041,9.7015133 C-0.734601174,12.5781422 2.85791568,13.9421213 10.3112701,13.4422285 L10.3112701,13.4422285 C17.7656184,12.9443312 19.5037406,13.6926738 19.5037406,11.447646 L19.5037406,11.447646 C19.5037406,9.08088785 17.0192892,1.9686399 17.0192892,0.721402254 L17.0192892,0.721402254 C17.0192892,0.154657468 15.8893606,0 14.6570727,0 L14.6570727,0 C13.1793209,0 11.5534959,0.222507196 11.5534959,0.222507196 L11.5534959,0.222507196 Z" id="path-3"></path>
        <path d="M37.5361206,0.279522124 C28.7820904,3.87323488 22.8122933,17.9886012 16.4662485,24.3254379 L16.4662485,24.3254379 C13.4562668,27.3300502 7.15737841,22.8647094 5.58215464,20.646566 L5.58215464,20.646566 C4.00592755,18.4274209 -1.54447874,16.8925539 0.413012701,23.3235665 L0.413012701,23.3235665 C16.0980274,40.6048464 23.0460686,28.8559004 29.5095027,23.3235665 L29.5095027,23.3235665 C36.5327933,17.3113361 37.5361206,12.3019791 37.5361206,12.3019791 L37.5361206,12.3019791 C37.5361206,12.3019791 42.6109498,0 38.72406,0 L38.72406,0 C38.3949687,0 38.0016644,0.0881646842 37.5361206,0.279522124 L37.5361206,0.279522124 Z" id="path-5"></path>
        <path d="M1.09924394,4.96665124 C1.09924394,4.96665124 2.12333824,14.900947 0.0751496505,17.8799445 L0.0751496505,17.8799445 C-0.940751888,19.3590132 8.66832487,21.2940205 9.29199829,18.8732747 L9.29199829,18.8732747 C10.3160926,14.900947 6.21971541,0 6.21971541,0 L6.21971541,0 L1.09924394,4.96665124 Z" id="path-7"></path>
        <path d="M0,5.38082471 C0,5.38082471 14.3659049,28.171784 16.7824107,30.5026436 L16.7824107,30.5026436 C24.6229432,38.0627273 36.349451,38.9015175 38.6842635,39.328393 L38.6842635,39.328393 C41.8017173,39.8978927 43.3296832,38.4776342 40.3836843,35.9094 L40.3836843,35.9094 C37.4376854,33.3411658 31.3238048,32.3258406 27.2724259,27.9304199 L27.2724259,27.9304199 C23.2220557,23.5349992 8.99533179,0.17454019 7.10125924,0.00398949006 L7.10125924,0.00398949006 C7.07201105,0.00199474503 7.04276285,0 7.0125061,0 L7.0125061,0 C5.05086014,0 0,5.38082471 0,5.38082471 L0,5.38082471 Z" id="path-9"></path>
        <path d="M0.148994438,49.5273139 C-0.166896836,59.7489511 -0.354017145,87.0470057 3.67007551,95.0514201 L3.67007551,95.0514201 C4.89742377,97.4927665 9.88629265,97.676868 10.7122377,96.0519719 L10.7122377,96.0519719 C13.1558679,91.2473222 13.4325243,81.6250156 14.7363303,69.0370734 L14.7363303,69.0370734 C16.5974732,51.0671631 22.7845156,30.0155533 22.7845156,30.0155533 L22.7845156,30.0155533 C22.7845156,30.0155533 28.4423899,77.9139689 33.8507704,94.0508683 L33.8507704,94.0508683 C34.3215893,95.4586447 35.1706728,96.8874327 36.3658284,97.5527996 L36.3658284,97.5527996 C38.9955729,99.0156063 42.645425,98.3192223 43.0035692,96.4291799 L43.0035692,96.4291799 C43.7289119,92.6070721 41.3959442,85.5471786 41.8989558,77.0414878 L41.8989558,77.0414878 C43.385858,51.8926184 40.8929326,0.999551245 40.8929326,0.999551245 L40.8929326,0.999551245 L3.67007551,0 C3.67007551,0 0.497078453,38.229083 0.148994438,49.5273139 L0.148994438,49.5273139 Z" id="path-11"></path>
    </defs>
    <g id="空状态插画-暗色" stroke="none" stroke-width="1" fill="none" fill-rule="evenodd">
        <g id="旧版缺省状态-welcome-to-create" transform="translate(-281.000000, -287.000000)">
            <g id="welcome-to-create" transform="translate(281.940447, 287.000000)">
                <g id="Fill-2" transform="translate(121.877595, 212.576354)" fill="#7F5916" fill-rule="nonzero">
                    <path d="M11.5534959,0.222634489 C11.5534959,0.222634489 10.062825,5.95959543 7.32992836,6.70789468 C4.59703172,7.45619393 0.870354487,7.20676085 0.125019041,9.70109169 C-0.734601174,12.577554 2.85791568,13.9414541 10.3112701,13.442588 C17.7646246,12.9437218 19.5037406,13.692021 19.5037406,11.4471233 C19.5037406,9.08050218 17.0192892,1.96866608 17.0192892,0.721500657 C17.0192892,-0.525664765 11.5534959,0.222634489 11.5534959,0.222634489" id="路径"></path>
                </g>
                <g id="Fill-3-Clipped" transform="translate(121.877595, 212.576354)">
                    <mask id="mask-2" fill="white">
                        <use xlink:href="#path-1"></use>
                    </mask>
                    <use id="path-1" fill="#603624" xlink:href="#path-1"></use>
                    <path d="M8.62536459,-0.871869004 C8.62536459,-0.871869004 11.6065584,6.11266181 17.5689459,5.1148717 C23.5313334,4.11708158 20.5501397,-0.871869004 20.5501397,-0.871869004 L13.5940209,-2.86744924 L8.62536459,-0.871869004 Z" id="Fill-3" fill="#502716" fill-rule="nonzero" mask="url(#mask-2)"></path>
                </g>
                <path d="M101.515879,212.798989 C101.515879,212.798989 100.025208,218.53595 97.2923114,219.284249 C94.5594148,220.032548 90.8327375,219.783115 90.0874021,222.277446 C89.2277819,225.153908 92.8202987,226.517808 100.273653,226.018942 C107.727008,225.520076 109.466124,226.268375 109.466124,224.023477 C109.466124,221.656856 106.981672,214.54502 106.981672,213.297855 C106.981672,212.050689 101.515879,212.798989 101.515879,212.798989" id="Fill-5" fill="#7F5916" fill-rule="nonzero"></path>
                <g id="Fill-7-Clipped" transform="translate(89.962383, 212.576354)">
                    <mask id="mask-4" fill="white">
                        <use xlink:href="#path-3"></use>
                    </mask>
                    <use id="path-3" fill="#603624" xlink:href="#path-3"></use>
                    <path d="M9.61959885,-1.86965912 C9.61959885,-1.86965912 12.6009406,5.1148717 18.5636242,4.11708158 C24.5263078,3.11929146 21.544966,-1.86965912 21.544966,-1.86965912 L14.5885018,-3.86523935 L9.61959885,-1.86965912 Z" id="Fill-7" fill="#502716" fill-rule="nonzero" mask="url(#mask-4)"></path>
                </g>
                <g id="编组" transform="translate(3.082084, 24.731875)" fill-rule="nonzero">
                    <path d="M36.7923989,50.0516755 C37.4286483,49.8016711 38.1242005,50.0576756 38.3443246,50.6236855 C38.5654539,51.1906954 38.2367754,51.8487069 37.6125876,52.0947112 C37.2999912,52.2177134 32.6703476,53.9077429 28.251782,55.9057779 C23.8111034,57.854812 19.6387954,60.1938529 19.4739536,59.9428485 C19.3010707,59.687844 23.2190799,56.8557945 27.5522093,54.5147535 C31.8551846,52.1277118 36.4767871,50.1766777 36.7923989,50.0516755" id="Fill-9" fill="#373B3F"></path>
                    <path d="M63.3233928,57.000997 L63.3233928,13.0002274 C63.3233928,13.0002274 105.538988,-7.10542736e-15 159.816182,12.0002099 L157.805915,59.001032 C157.805915,59.001032 105.538988,40.0006997 63.3233928,57.000997" id="Fill-11" fill="#373B3F"></path>
                    <path d="M97.4979223,40.0006997 C97.4979223,40.0006997 96.4927891,45.0007871 89.4568565,51.0008921 C82.9817883,56.5229887 76.0212408,68.2511938 60.3079932,51.0008921 C58.3469783,44.5827798 63.9083804,46.1138066 65.4864395,48.3288453 C67.0655038,50.5438841 73.374725,55.000962 76.3901247,52.0009096 C82.7475923,45.676799 88.7271298,31.5875525 97.4979223,28.0004898 C103.47746,25.555447 97.4979223,40.0006997 97.4979223,40.0006997" id="Fill-13" fill="#E3C29D"></path>
                    <path d="M98.0004889,92.501618 C98.0004889,92.501618 94.8302987,130.711286 94.4825226,142.002484 C94.1679159,152.219663 93.979956,179.50314 98.0004889,187.50328 C99.2267514,189.942322 104.211207,190.126326 105.036421,188.503297 C107.47789,183.701213 107.754302,174.084045 109.056954,161.502825 C110.916451,143.541511 117.09802,122.502143 117.09802,122.502143 C117.09802,122.502143 122.750889,170.37498 128.154486,186.503262 C128.625893,187.909287 129.47322,189.338312 130.667319,190.003323 C133.294737,191.465349 136.94136,190.769337 137.300193,188.880304 C138.023889,185.060237 135.692985,178.003114 136.195551,169.502965 C137.682143,144.366525 135.190418,93.5016355 135.190418,93.5016355 L98.0004889,92.501618 Z" id="Fill-15" fill="#1452CC"></path>
                    <path d="M132.636375,34.3912016 C132.636375,34.3912016 146.953492,57.2436013 149.361791,59.5786421 C157.175697,67.1607747 168.862381,68.0007894 171.189264,68.4287969 C174.295126,68.9998069 175.818908,67.576782 172.882914,65.000737 C169.94692,62.4256919 163.853802,61.4086741 159.816182,57.000597 C155.778562,52.5935199 141.601158,29.1711102 139.713518,29.0001073 C137.825877,28.8291043 132.636375,34.3912016 132.636375,34.3912016" id="Fill-17" fill="#E3C29D"></path>
                    <path d="M176.285993,67.8859874 C176.285993,67.8859874 177.995725,68.0959911 176.903145,69.0010069 C175.681908,70.0130246 169.338513,69.2250108 168.862079,67.0009719 C168.386651,64.7779331 168.772623,63.744915 173.647519,63.630913 C177.92436,63.5309112 178.97573,63.6799139 179.562728,65.1699399 C180.380906,67.2529763 176.285993,67.8859874 176.285993,67.8859874" id="Fill-19" fill="#D9B791"></path>
                    <path d="M110.564654,5.00008746 C110.564654,5.00008746 111.569787,15.0002624 109.559521,18.0003149 C108.562429,19.4883409 117.993594,21.437375 118.60572,19.0003323 C119.610853,15.0002624 115.59032,0 115.59032,0 L110.564654,5.00008746 Z" id="Fill-21" fill="#E3C29D"></path>
                    <path d="M56.8867207,45.7625005 C56.8867207,45.7625005 56.0313524,43.5254613 58.1190141,44.2714744 C60.2056706,45.0184874 60.9052433,45.7415001 62.0802441,46.3385105 C63.2562499,46.937521 66.2012903,47.6145328 64.5930771,49.7605704 C62.7185037,52.2626141 59.9855464,52.6936217 54.2613128,50.3415805 C49.0697997,48.2085432 52.6581253,44.8014836 56.8867207,45.7625005" id="Fill-23" fill="#D9B791"></path>
                    <path d="M30.1539966,84.0014693 L30.1539966,120.002099 C30.1539966,120.002099 1.00513322,111.001942 1.00513322,91.0015917 C1.00513322,71.0012419 0,52.0009096 0,52.0009096 C0,52.0009096 3.01539966,77.0013469 30.1539966,84.0014693" id="Fill-25" fill="#4F5256"></path>
                </g>
                <g id="Fill-27-Clipped" transform="translate(62.775351, 52.408021)">
                    <mask id="mask-6" fill="white">
                        <use xlink:href="#path-5"></use>
                    </mask>
                    <use id="path-5" fill="#D9B791" xlink:href="#path-5"></use>
                    <path d="M27.5538172,6.22933588 C27.5538172,6.22933588 31.2972311,15.998584 36.5235627,18.6254908 C41.748891,21.2523977 39.0057943,11.4090111 39.0057943,11.4090111 L34.4837985,4.71150069 L27.5538172,6.22933588 Z" id="Fill-27" fill="#CCAF93" fill-rule="nonzero" mask="url(#mask-6)"></path>
                </g>
                <g id="编组" transform="translate(0.000000, 45.912553)" fill-rule="nonzero">
                    <path d="M17.0720339,55.8853596 L17.0720339,6.98566996 C17.0720339,6.98566996 0,15.9672456 0,27.9426798 C0,44.9078783 17.0720339,55.8853596 17.0720339,55.8853596" id="Fill-29" fill="#373B3F"></path>
                    <path d="M197.834746,0 C197.834746,0 230.019547,12.9604137 233.987288,27.9426798 C239.008475,46.903784 217.919492,61.8730768 217.919492,61.8730768 C217.919492,61.8730768 215.911017,48.8996897 196.830508,41.9140197 C196.830508,35.9263026 197.834746,0 197.834746,0" id="Fill-31" fill="#373B3F"></path>
                    <path d="M217.919492,62.8710296 L217.919492,94.8055208 C217.919492,94.8055208 237,85.8239452 237,72.8505581 C237,59.8771711 235.995763,33.9303969 235.995763,33.9303969 C235.995763,33.9303969 234.991525,51.8935482 217.919492,62.8710296" id="Fill-33" fill="#4F5256"></path>
                </g>
                <g id="Fill-35-Clipped" transform="translate(112.421236, 24.731875)">
                    <mask id="mask-8" fill="white">
                        <use xlink:href="#path-7"></use>
                    </mask>
                    <use id="path-7" fill="#D9B791" xlink:href="#path-7"></use>
                    <path d="M-0.948944643,9.93350114 C-0.948944643,9.93350114 5.19562112,15.8934826 12.3642812,11.9201616 C19.5329412,7.94684065 6.21971541,6.9535104 6.21971541,6.9535104 L-0.948944643,9.93350114 Z" id="Fill-35" fill="#CCAF93" fill-rule="nonzero" mask="url(#mask-8)"></path>
                </g>
                <g id="编组" transform="translate(22.585824, 0.000000)" fill-rule="nonzero">
                    <path d="M74.9061466,6.67648278 C74.9061466,6.67648278 83.3374923,-2.52419009 92.973316,0.676043954 C102.60914,3.87627799 105.715689,8.82664003 105.519961,17.1772507 C105.303155,26.3989251 103.041748,29.6621638 98.9957059,31.6783112 C96.9882426,32.6783844 92.973316,32.6783844 92.973316,32.6783844 L92.4875099,16.1561761 L88.4725834,15.3561175 C88.4725834,15.3561175 79.7240585,13.8770094 78.9210731,10.6767753 C78.1180878,7.47654129 74.9061466,6.67648278 74.9061466,6.67648278" id="Fill-37" fill="#191F35"></path>
                    <path d="M74.9061466,6.67648278 C74.9061466,6.67648278 83.3374923,-2.52419009 92.973316,0.676043954 C102.60914,3.87627799 105.715689,8.82664003 105.519961,17.1772507 C105.303155,26.3989251 103.041748,29.6621638 98.9957059,31.6783112 C96.9882426,32.6783844 92.973316,32.6783844 92.973316,32.6783844 L92.4875099,16.1561761 L88.4725834,15.3561175 C88.4725834,15.3561175 79.7240585,13.8770094 78.9210731,10.6767753 C78.1180878,7.47654129 74.9061466,6.67648278 74.9061466,6.67648278" id="Fill-37备份" fill="#FFFFFF" opacity="0.119999997"></path>
                    <path d="M81.9322681,12.6769216 C81.9322681,12.6769216 79.8585585,14.4030478 79.9248048,20.6775067 C79.9328346,21.3965593 78.1471961,21.5345694 77.9173415,22.677653 C77.4154757,25.1778358 80.855264,26.0699011 80.9285364,26.6779455 C81.6441971,32.5803772 87.1305942,37.6337468 94.9807793,35.6786038 C98.9957059,34.6785306 98.9957059,28.8781064 98.9957059,25.6778724 C98.9957059,25.6778724 103.562685,22.2276201 101.003169,19.6774336 C98.9957059,17.6772873 96.9882426,20.6775067 96.9882426,20.6775067 C96.9882426,20.6775067 97.9116757,17.0772434 95.6994512,13.7560005 C94.9807793,12.6769216 87.9546579,17.0772434 81.9322681,12.6769216" id="Fill-39" fill="#E3C29D"></path>
                    <path d="M19.7998746,126.047513 C18.4639078,125.577478 17.5525195,124.731416 17.7633031,124.161375 C17.9740867,123.590333 19.2076729,123.506327 20.5205539,123.968361 C20.8527891,124.072368 23.4143122,125.011437 27.1381566,126.173522 C30.8559786,127.351608 35.750174,128.704707 40.6473807,129.882793 C45.5475985,131.052879 50.4498238,132.046951 54.1274965,132.744002 C57.8051692,133.441053 60.252267,133.884086 60.2314571,134.042097 C60.2131214,134.186108 57.7278819,134.029096 53.9950039,133.590064 C50.2641335,133.151032 45.2926507,132.386976 40.313138,131.401904 C35.3356328,130.409832 30.3511015,129.200743 26.5559922,128.115664 C22.756868,127.047586 20.1361247,126.15352 19.7998746,126.047513" id="Fill-41" fill="#373B3F"></path>
                    <path d="M26.2457388,143.118161 C25.1145332,142.772136 24.3456748,142.022081 24.5293577,141.442039 C24.7130406,140.862996 25.7659551,140.670982 26.8800972,141.011007 C27.4321496,141.19402 35.60654,143.731206 43.8421581,145.557339 C47.9524391,146.490408 52.0566978,147.305467 55.1321315,147.898511 C58.208569,148.491554 60.2511629,148.888583 60.2313794,149.043594 C60.2130211,149.188605 58.1312816,149.079597 55.0036539,148.745573 C51.8780336,148.411548 47.7115435,147.826505 43.5310013,147.082451 C35.157872,145.636345 26.8048173,143.305175 26.2457388,143.118161" id="Fill-43" fill="#373B3F"></path>
                    <path d="M163.738404,132.108556 C162.731661,132.404578 161.77912,132.171561 161.611496,131.587518 C161.443873,131.004475 162.111355,130.293423 163.103042,130.001402 C163.596878,129.854391 170.915085,127.829243 177.868938,125.121045 C181.350883,123.785947 184.742492,122.304839 187.24881,121.126753 C189.760146,119.956667 191.40727,119.126607 191.488572,119.264617 C191.563852,119.386626 190.059259,120.468705 187.649299,121.883808 C185.245362,123.306912 181.916987,125.020038 178.471177,126.55615 C171.586581,129.668377 164.236255,131.960545 163.738404,132.108556" id="Fill-45" fill="#373B3F"></path>
                    <path d="M155.483012,152.367838 C154.180169,152.685861 153.010821,152.464845 152.871303,151.873801 C152.732788,151.281758 153.661239,150.548705 154.94702,150.233681 C155.585393,150.07467 165.06062,147.89051 174.041006,144.645273 C178.533709,143.044156 182.901949,141.219022 186.108872,139.714912 C189.321817,138.224803 191.40456,137.123723 191.488873,137.265733 C191.561142,137.384742 189.620929,138.739841 186.499324,140.476968 C183.387755,142.229096 179.069702,144.292247 174.598078,146.098379 C165.660851,149.755647 156.127408,152.208826 155.483012,152.367838" id="Fill-47" fill="#373B3F"></path>
                    <path d="M162.308187,51.9883966 C162.914441,52.1554088 163.272773,52.7644533 163.108161,53.3494961 C162.943549,53.9345389 162.326254,54.2755638 161.72803,54.1115518 C161.428918,54.0275457 157.072722,52.7204501 152.737605,51.5723661 C148.408511,50.4032806 144.110532,49.3712052 144.16373,49.0701831 C144.215924,48.7721613 148.624313,49.2651974 153.075863,50.053255 C157.528417,50.8193111 162.006063,51.9033903 162.308187,51.9883966" id="Fill-49" fill="#373B3F"></path>
                    <path d="M169.774444,72.191074 C170.626613,72.4680943 171.160598,73.1601449 170.966878,73.736187 C170.774161,74.3122291 169.938053,74.5592472 169.099937,74.2872273 C168.684392,74.1442169 162.555606,72.0740655 156.396709,70.4179444 C150.25086,68.7188201 144.111034,67.3737217 144.163228,67.0716996 C144.213415,66.7746779 150.470678,67.5817369 156.762067,68.9058338 C163.062491,70.1849273 169.352877,72.0460634 169.774444,72.191074" id="Fill-51" fill="#373B3F"></path>
                    <path d="M31.3541306,49.9277459 C32.4973809,49.5997219 33.5563178,49.8087371 33.719926,50.39478 C33.8835343,50.9798228 33.1016273,51.7158766 31.9754404,52.0389002 C31.4153582,52.2019122 23.1024528,54.4520767 15.2532714,57.6023071 C11.3256695,59.159421 7.51349675,60.9065488 4.71509295,62.3266526 C1.91066676,63.7347556 0.0909013076,64.7598306 0.00257292368,64.6218205 C-0.0747144123,64.5048119 1.5944913,63.2317188 4.29653686,61.5785979 C6.99055257,59.9144762 10.7435052,57.9323312 14.6419988,56.1712025 C22.4309563,52.6129422 30.7900334,50.0917578 31.3541306,49.9277459" id="Fill-53" fill="#373B3F"></path>
                </g>
                <g id="Fill-55-Clipped" transform="translate(135.471111, 53.585729)">
                    <mask id="mask-10" fill="white">
                        <use xlink:href="#path-9"></use>
                    </mask>
                    <use id="path-9" fill="#D9B791" xlink:href="#path-9"></use>
                    <path d="M19.2039593,8.98054159 C19.2039593,8.98054159 15.1697259,17.9568942 10.1269342,18.9542667 C5.08414257,19.9516392 7.10125924,14.9647767 7.10125924,14.9647767 L10.1269342,11.9726591 L19.2039593,8.98054159 Z" id="Fill-55" fill="#CCAF93" fill-rule="nonzero" mask="url(#mask-10)"></path>
                </g>
                <g id="Fill-57-Clipped" transform="translate(97.054652, 117.181979)">
                    <mask id="mask-12" fill="white">
                        <use xlink:href="#path-11"></use>
                    </mask>
                    <g id="path-11"></g>
                    <path d="M22.954433,31.4208283 C22.954433,31.4208283 17.2512876,5.5025346 17.2512876,-4.50298336 C17.2512876,-14.5085013 50.1150463,-0.000500275898 50.1150463,-0.000500275898 L55.4801679,88.5483337 L48.4380057,99.5544035 L34.3536814,102.556059 L24.2934498,88.5483337 L22.954433,31.4208283 Z" id="Fill-57" fill="#0065BA" fill-rule="nonzero" mask="url(#mask-12)"></path>
                </g>
                <g id="编组" transform="translate(89.371361, 40.042083)" fill-rule="nonzero">
                    <path d="M7.12952334,9.46268948 C10.9133714,6.27469985 16.1673769,2.46490728 24.920036,0.744452536 C45.7874358,-3.35724752 54.3272032,10.4623727 61.3566449,18.459838 C66.0322278,23.7791522 68.0125219,24.6448778 56.3356151,30.4560361 C52.3187913,32.4554025 49.3061734,27.4569866 49.3061734,27.4569866 C49.3061734,27.4569866 63.3650568,67.4443135 56.3356151,77.4411452 C54.7449529,79.7024286 49.299144,79.2115841 45.2893496,79.4405116 C10.1421412,81.4398779 6.66959702,76.6104085 6.12531739,74.4420957 C5.12111144,70.443363 5.12111144,67.4443135 6.12531739,60.4465313 C7.79932872,48.7812283 10.945506,37.656754 10.1421412,28.4566698 C10.0477458,27.3760123 6.52900818,25.303669 4.11690548,23.4582539 C1.29307834,21.2979386 -0.446206376,18.3678672 0.100081663,17.4601549 C3.11269953,12.461739 5.09299367,11.1791455 7.12952334,9.46268948" id="Fill-59" fill="#FFBA2A"></path>
                    <path d="M0.100081663,121.427205 L0.100081663,80.4401947 C0.100081663,80.4401947 27.2136424,88.4376601 77.4239401,78.4408284 L77.4239401,121.427205 C77.4239401,121.427205 44.2851437,130.424353 0.100081663,121.427205" id="Fill-61" fill="#4F5256"></path>
                </g>
            </g>
        </g>
    </g>
</svg>