<?xml version="1.0" encoding="UTF-8"?>
<svg width="121px" height="160px" viewBox="0 0 121 160" version="1.1" xmlns="http://www.w3.org/2000/svg" xmlns:xlink="http://www.w3.org/1999/xlink">
    <!-- Generator: Sketch 64 (93537) - https://sketch.com -->
    <title>CardList</title>
    <desc>Created with Sketch.</desc>
    <g id="页面-1" stroke="none" stroke-width="1" fill="none" fill-rule="evenodd">
        <g id="User-Flow-Elements-切图" transform="translate(-467.000000, -86.000000)">
            <g id="CardList" transform="translate(467.000000, 86.000000)">
                <rect id="矩形备份-21" stroke="#000000" opacity="0.15" x="0.5" y="0.5" width="120" height="159" rx="3"></rect>
                <line x1="1.5" y1="7.5" x2="119.5" y2="7.5" id="直线备份-2" stroke="#000000" opacity="0.15" stroke-linecap="square"></line>
                <rect id="矩形备份-22" fill="#000000" opacity="0.05" x="5" y="3" width="6" height="2" rx="1"></rect>
                <rect id="矩形备份-23" fill="#000000" opacity="0.05" x="13" y="3" width="6" height="2" rx="1"></rect>
                <rect id="矩形备份-24" fill="#000000" opacity="0.05" x="21" y="3" width="6" height="2" rx="1"></rect>
                <rect id="矩形备份-25" fill="#000000" opacity="0.3" x="15" y="21" width="20" height="4" rx="1"></rect>
                <circle id="椭圆形备份-5" fill="#000000" opacity="0.18" cx="86" cy="23" r="2"></circle>
                <circle id="椭圆形备份-6" fill="#000000" opacity="0.18" cx="92" cy="23" r="2"></circle>
                <circle id="椭圆形备份-7" fill="#000000" opacity="0.18" cx="98" cy="23" r="2"></circle>
                <circle id="椭圆形备份-8" fill="#000000" opacity="0.18" cx="104" cy="23" r="2"></circle>
                <g id="编组-2" transform="translate(15.000000, 43.000000)">
                    <rect id="矩形备份-29" fill="#000000" opacity="0.05" x="0" y="0" width="27" height="12" rx="2"></rect>
                    <rect id="矩形备份-32" fill="#000000" opacity="0.15" x="11" y="7" width="10" height="1" rx="0.5"></rect>
                    <circle id="椭圆形" fill="#000000" opacity="0.15" cx="6" cy="6" r="3"></circle>
                    <rect id="矩形" stroke="#000000" opacity="0.4" x="11.5" y="4.5" width="12" height="1" rx="0.5"></rect>
                </g>
                <g id="编组-2备份-6" transform="translate(15.000000, 77.000000)">
                    <rect id="矩形备份-29" fill="#000000" opacity="0.05" x="0" y="0" width="27" height="12" rx="2"></rect>
                    <rect id="矩形备份-32" fill="#000000" opacity="0.15" x="11" y="7" width="10" height="1" rx="0.5"></rect>
                    <circle id="椭圆形" fill="#000000" opacity="0.15" cx="6" cy="6" r="3"></circle>
                    <rect id="矩形" stroke="#000000" opacity="0.4" x="11.5" y="4.5" width="12" height="1" rx="0.5"></rect>
                </g>
                <g id="编组-2备份-12" transform="translate(15.000000, 111.000000)">
                    <rect id="矩形备份-29" fill="#000000" opacity="0.05" x="0" y="0" width="27" height="12" rx="2"></rect>
                    <rect id="矩形备份-32" fill="#000000" opacity="0.15" x="11" y="7" width="10" height="1" rx="0.5"></rect>
                    <circle id="椭圆形" fill="#000000" opacity="0.15" cx="6" cy="6" r="3"></circle>
                    <rect id="矩形" stroke="#000000" opacity="0.4" x="11.5" y="4.5" width="12" height="1" rx="0.5"></rect>
                </g>
                <g id="编组-2备份-3" transform="translate(15.000000, 60.000000)">
                    <rect id="矩形备份-29" fill="#000000" opacity="0.05" x="0" y="0" width="27" height="12" rx="2"></rect>
                    <rect id="矩形备份-32" fill="#000000" opacity="0.15" x="11" y="7" width="10" height="1" rx="0.5"></rect>
                    <circle id="椭圆形" fill="#000000" opacity="0.15" cx="6" cy="6" r="3"></circle>
                    <rect id="矩形" stroke="#000000" opacity="0.4" x="11.5" y="4.5" width="12" height="1" rx="0.5"></rect>
                </g>
                <g id="编组-2备份-7" transform="translate(15.000000, 94.000000)">
                    <rect id="矩形备份-29" fill="#000000" opacity="0.05" x="0" y="0" width="27" height="12" rx="2"></rect>
                    <rect id="矩形备份-32" fill="#000000" opacity="0.15" x="11" y="7" width="10" height="1" rx="0.5"></rect>
                    <circle id="椭圆形" fill="#000000" opacity="0.15" cx="6" cy="6" r="3"></circle>
                    <rect id="矩形" stroke="#000000" opacity="0.4" x="11.5" y="4.5" width="12" height="1" rx="0.5"></rect>
                </g>
                <g id="编组-2备份-13" transform="translate(15.000000, 128.000000)">
                    <rect id="矩形备份-29" fill="#000000" opacity="0.05" x="0" y="0" width="27" height="12" rx="2"></rect>
                    <rect id="矩形备份-32" fill="#000000" opacity="0.15" x="11" y="7" width="10" height="1" rx="0.5"></rect>
                    <circle id="椭圆形" fill="#000000" opacity="0.15" cx="6" cy="6" r="3"></circle>
                    <rect id="矩形" stroke="#000000" opacity="0.4" x="11.5" y="4.5" width="12" height="1" rx="0.5"></rect>
                </g>
                <g id="编组-2备份" transform="translate(79.000000, 43.000000)">
                    <rect id="矩形备份-29" fill="#000000" opacity="0.05" x="0" y="0" width="27" height="12" rx="2"></rect>
                    <rect id="矩形备份-32" fill="#000000" opacity="0.15" x="11" y="7" width="10" height="1" rx="0.5"></rect>
                    <circle id="椭圆形" fill="#000000" opacity="0.15" cx="6" cy="6" r="3"></circle>
                    <rect id="矩形" stroke="#000000" opacity="0.4" x="11.5" y="4.5" width="12" height="1" rx="0.5"></rect>
                </g>
                <g id="编组-2备份-8" transform="translate(79.000000, 77.000000)">
                    <rect id="矩形备份-29" fill="#000000" opacity="0.05" x="0" y="0" width="27" height="12" rx="2"></rect>
                    <rect id="矩形备份-32" fill="#000000" opacity="0.15" x="11" y="7" width="10" height="1" rx="0.5"></rect>
                    <circle id="椭圆形" fill="#000000" opacity="0.15" cx="6" cy="6" r="3"></circle>
                    <rect id="矩形" stroke="#000000" opacity="0.4" x="11.5" y="4.5" width="12" height="1" rx="0.5"></rect>
                </g>
                <g id="编组-2备份-14" transform="translate(79.000000, 111.000000)">
                    <rect id="矩形备份-29" fill="#000000" opacity="0.05" x="0" y="0" width="27" height="12" rx="2"></rect>
                    <rect id="矩形备份-32" fill="#000000" opacity="0.15" x="11" y="7" width="10" height="1" rx="0.5"></rect>
                    <circle id="椭圆形" fill="#000000" opacity="0.15" cx="6" cy="6" r="3"></circle>
                    <rect id="矩形" stroke="#000000" opacity="0.4" x="11.5" y="4.5" width="12" height="1" rx="0.5"></rect>
                </g>
                <g id="编组-2备份-4" transform="translate(79.000000, 60.000000)">
                    <rect id="矩形备份-29" fill="#000000" opacity="0.05" x="0" y="0" width="27" height="12" rx="2"></rect>
                    <rect id="矩形备份-32" fill="#000000" opacity="0.15" x="11" y="7" width="10" height="1" rx="0.5"></rect>
                    <circle id="椭圆形" fill="#000000" opacity="0.15" cx="6" cy="6" r="3"></circle>
                    <rect id="矩形" stroke="#000000" opacity="0.4" x="11.5" y="4.5" width="12" height="1" rx="0.5"></rect>
                </g>
                <g id="编组-2备份-9" transform="translate(79.000000, 94.000000)">
                    <rect id="矩形备份-29" fill="#000000" opacity="0.05" x="0" y="0" width="27" height="12" rx="2"></rect>
                    <rect id="矩形备份-32" fill="#000000" opacity="0.15" x="11" y="7" width="10" height="1" rx="0.5"></rect>
                    <circle id="椭圆形" fill="#000000" opacity="0.15" cx="6" cy="6" r="3"></circle>
                    <rect id="矩形" stroke="#000000" opacity="0.4" x="11.5" y="4.5" width="12" height="1" rx="0.5"></rect>
                </g>
                <g id="编组-2备份-15" transform="translate(79.000000, 128.000000)">
                    <rect id="矩形备份-29" fill="#000000" opacity="0.05" x="0" y="0" width="27" height="12" rx="2"></rect>
                    <rect id="矩形备份-32" fill="#000000" opacity="0.15" x="11" y="7" width="10" height="1" rx="0.5"></rect>
                    <circle id="椭圆形" fill="#000000" opacity="0.15" cx="6" cy="6" r="3"></circle>
                    <rect id="矩形" stroke="#000000" opacity="0.4" x="11.5" y="4.5" width="12" height="1" rx="0.5"></rect>
                </g>
                <g id="编组-2备份-2" transform="translate(47.000000, 43.000000)">
                    <rect id="矩形备份-29" fill="#000000" opacity="0.05" x="0" y="0" width="27" height="12" rx="2"></rect>
                    <rect id="矩形备份-32" fill="#000000" opacity="0.15" x="11" y="7" width="10" height="1" rx="0.5"></rect>
                    <circle id="椭圆形" fill="#000000" opacity="0.15" cx="6" cy="6" r="3"></circle>
                    <rect id="矩形" stroke="#000000" opacity="0.4" x="11.5" y="4.5" width="12" height="1" rx="0.5"></rect>
                </g>
                <g id="编组-2备份-10" transform="translate(47.000000, 77.000000)">
                    <rect id="矩形备份-29" fill="#000000" opacity="0.05" x="0" y="0" width="27" height="12" rx="2"></rect>
                    <rect id="矩形备份-32" fill="#000000" opacity="0.15" x="11" y="7" width="10" height="1" rx="0.5"></rect>
                    <circle id="椭圆形" fill="#000000" opacity="0.15" cx="6" cy="6" r="3"></circle>
                    <rect id="矩形" stroke="#000000" opacity="0.4" x="11.5" y="4.5" width="12" height="1" rx="0.5"></rect>
                </g>
                <g id="编组-2备份-16" transform="translate(47.000000, 111.000000)">
                    <rect id="矩形备份-29" fill="#000000" opacity="0.05" x="0" y="0" width="27" height="12" rx="2"></rect>
                    <rect id="矩形备份-32" fill="#000000" opacity="0.15" x="11" y="7" width="10" height="1" rx="0.5"></rect>
                    <circle id="椭圆形" fill="#000000" opacity="0.15" cx="6" cy="6" r="3"></circle>
                    <rect id="矩形" stroke="#000000" opacity="0.4" x="11.5" y="4.5" width="12" height="1" rx="0.5"></rect>
                </g>
                <g id="编组-2备份-5" transform="translate(47.000000, 60.000000)">
                    <rect id="矩形备份-29" fill="#000000" opacity="0.05" x="0" y="0" width="27" height="12" rx="2"></rect>
                    <rect id="矩形备份-32" fill="#000000" opacity="0.15" x="11" y="7" width="10" height="1" rx="0.5"></rect>
                    <circle id="椭圆形" fill="#000000" opacity="0.15" cx="6" cy="6" r="3"></circle>
                    <rect id="矩形" stroke="#000000" opacity="0.4" x="11.5" y="4.5" width="12" height="1" rx="0.5"></rect>
                </g>
                <g id="编组-2备份-11" transform="translate(47.000000, 94.000000)">
                    <rect id="矩形备份-29" fill="#000000" opacity="0.05" x="0" y="0" width="27" height="12" rx="2"></rect>
                    <rect id="矩形备份-32" fill="#000000" opacity="0.15" x="11" y="7" width="10" height="1" rx="0.5"></rect>
                    <circle id="椭圆形" fill="#000000" opacity="0.15" cx="6" cy="6" r="3"></circle>
                    <rect id="矩形" stroke="#000000" opacity="0.4" x="11.5" y="4.5" width="12" height="1" rx="0.5"></rect>
                </g>
                <g id="编组-2备份-17" transform="translate(47.000000, 128.000000)">
                    <rect id="矩形备份-29" fill="#000000" opacity="0.05" x="0" y="0" width="27" height="12" rx="2"></rect>
                    <rect id="矩形备份-32" fill="#000000" opacity="0.15" x="11" y="7" width="10" height="1" rx="0.5"></rect>
                    <circle id="椭圆形" fill="#000000" opacity="0.15" cx="6" cy="6" r="3"></circle>
                    <rect id="矩形" stroke="#000000" opacity="0.4" x="11.5" y="4.5" width="12" height="1" rx="0.5"></rect>
                </g>
                <rect id="矩形备份-26" fill="#000000" opacity="0.05" x="15" y="35" width="20" height="3" rx="1.5"></rect>
                <rect id="矩形备份-27" fill="#000000" opacity="0.05" x="38" y="35" width="15" height="3" rx="1.5"></rect>
                <rect id="矩形备份-28" fill="#000000" opacity="0.05" x="56" y="35" width="10" height="3" rx="1.5"></rect>
            </g>
        </g>
    </g>
</svg>