<?xml version="1.0" encoding="UTF-8"?>
<svg width="121px" height="160px" viewBox="0 0 121 160" version="1.1" xmlns="http://www.w3.org/2000/svg" xmlns:xlink="http://www.w3.org/1999/xlink">
    <!-- Generator: Sketch 64 (93537) - https://sketch.com -->
    <title>Dashboard</title>
    <desc>Created with Sketch.</desc>
    <g id="页面-1" stroke="none" stroke-width="1" fill="none" fill-rule="evenodd">
        <g id="User-Flow-Elements-切图" transform="translate(-58.000000, -86.000000)">
            <g id="Dashboard" transform="translate(58.000000, 86.000000)">
                <rect id="矩形" stroke="#000000" opacity="0.15" x="0.5" y="0.5" width="120" height="159" rx="3"></rect>
                <line x1="1.5" y1="7.5" x2="119.5" y2="7.5" id="直线" stroke="#000000" opacity="0.15" stroke-linecap="square"></line>
                <rect id="矩形" fill-opacity="0.05" fill="#000000" x="5" y="3" width="6" height="2" rx="1"></rect>
                <rect id="矩形备份" fill-opacity="0.05" fill="#000000" x="13" y="3" width="6" height="2" rx="1"></rect>
                <rect id="矩形备份-2" fill-opacity="0.05" fill="#000000" x="21" y="3" width="6" height="2" rx="1"></rect>
                <rect id="矩形" fill-opacity="0.3" fill="#000000" x="15" y="21" width="20" height="4" rx="1"></rect>
                <circle id="椭圆形" fill-opacity="0.18" fill="#000000" cx="86" cy="23" r="2"></circle>
                <circle id="椭圆形" fill-opacity="0.18" fill="#000000" cx="92" cy="23" r="2"></circle>
                <circle id="椭圆形" fill-opacity="0.18" fill="#000000" cx="98" cy="23" r="2"></circle>
                <circle id="椭圆形" fill-opacity="0.18" fill="#000000" cx="104" cy="23" r="2"></circle>
                <rect id="矩形" fill-opacity="0.05" fill="#000000" x="15" y="35" width="27" height="12" rx="2"></rect>
                <rect id="矩形备份-8" fill-opacity="0.05" fill="#000000" x="15" y="134" width="27" height="12" rx="2"></rect>
                <rect id="矩形备份-5" fill-opacity="0.05" fill="#000000" x="15" y="52" width="59" height="24" rx="2"></rect>
                <rect id="矩形备份-7" fill-opacity="0.05" fill="#000000" x="15" y="81" width="91" height="48" rx="2"></rect>
                <rect id="矩形备份-3" fill-opacity="0.05" fill="#000000" x="47" y="35" width="27" height="12" rx="2"></rect>
                <rect id="矩形备份-9" fill-opacity="0.05" fill="#000000" x="47" y="134" width="59" height="12" rx="2"></rect>
                <rect id="矩形备份-4" fill-opacity="0.05" fill="#000000" x="79" y="35" width="27" height="12" rx="2"></rect>
                <rect id="矩形备份-6" fill-opacity="0.05" fill="#000000" x="79" y="52" width="27" height="24" rx="2"></rect>
                <rect id="矩形" fill-opacity="0.18" fill="#000000" x="27.4285714" y="61" width="2" height="12" rx="1"></rect>
                <rect id="矩形" fill-opacity="0.18" fill="#000000" x="33.8571429" y="58" width="2" height="15" rx="1"></rect>
                <rect id="矩形" fill-opacity="0.18" fill="#000000" x="40.2857143" y="63" width="2" height="10" rx="1"></rect>
                <rect id="矩形" fill-opacity="0.18" fill="#000000" x="46.7142857" y="65" width="2" height="8" rx="1"></rect>
                <rect id="矩形" fill-opacity="0.18" fill="#000000" x="53.1428571" y="67" width="2" height="6" rx="1"></rect>
                <rect id="矩形" fill-opacity="0.18" fill="#000000" x="59.5714286" y="61" width="2" height="12" rx="1"></rect>
                <rect id="矩形" fill-opacity="0.18" fill="#000000" x="21" y="65" width="2" height="8" rx="1"></rect>
                <rect id="矩形" fill-opacity="0.18" fill="#000000" x="66" y="63" width="2" height="10" rx="1"></rect>
                <line x1="36.5" y1="105.5" x2="35.5" y2="103.5" id="直线-2" stroke="#000000" opacity="0.15" stroke-linecap="square"></line>
                <line x1="36.5" y1="111.5" x2="33.5" y2="115.5" id="直线-3" stroke="#000000" opacity="0.15" stroke-linecap="square"></line>
                <line x1="41.5" y1="110.5" x2="44.5" y2="113.5" id="直线-4" stroke="#000000" opacity="0.15" stroke-linecap="square"></line>
                <line x1="41.5" y1="107.5" x2="72.5" y2="103.5" id="直线-5" stroke="#000000" opacity="0.15" stroke-linecap="square"></line>
                <line x1="65.5" y1="97.5" x2="72.5" y2="101.5" id="直线-6" stroke="#000000" opacity="0.15" stroke-linecap="square"></line>
                <line x1="78.5" y1="91.5" x2="77.5" y2="98.5" id="直线-7" stroke="#000000" opacity="0.15" stroke-linecap="square"></line>
                <line x1="80.5" y1="102.5" x2="89.5" y2="101.5" id="直线-8" stroke="#000000" opacity="0.15" stroke-linecap="square"></line>
                <line x1="79.5" y1="105.5" x2="86.5" y2="113.5" id="直线-9" stroke="#000000" opacity="0.15" stroke-linecap="square"></line>
                <line x1="74.5" y1="106.5" x2="69.5" y2="113.5" id="直线-10" stroke="#000000" opacity="0.15" stroke-linecap="square"></line>
                <circle id="椭圆形" fill-opacity="0.3" fill="#000000" cx="38.5" cy="108.5" r="2.5"></circle>
                <circle id="椭圆形备份-9" fill-opacity="0.3" fill="#000000" cx="32.5" cy="117.5" r="1.5"></circle>
                <circle id="椭圆形备份-8" fill-opacity="0.3" fill="#000000" cx="46.5" cy="114.5" r="1.5"></circle>
                <circle id="椭圆形备份-7" fill-opacity="0.3" fill="#000000" cx="34.5" cy="101.5" r="1.5"></circle>
                <circle id="椭圆形备份" fill-opacity="0.3" fill="#000000" cx="76.5" cy="102.5" r="3.5"></circle>
                <circle id="椭圆形备份-2" fill-opacity="0.3" fill="#000000" cx="78.5" cy="89.5" r="1.5"></circle>
                <circle id="椭圆形备份-3" fill-opacity="0.3" fill="#000000" cx="63.5" cy="96.5" r="1.5"></circle>
                <circle id="椭圆形备份-4" fill-opacity="0.3" fill="#000000" cx="87.5" cy="115.5" r="1.5"></circle>
                <circle id="椭圆形备份-5" fill-opacity="0.3" fill="#000000" cx="91.5" cy="101.5" r="1.5"></circle>
                <circle id="椭圆形备份-6" fill-opacity="0.3" fill="#000000" cx="67.5" cy="115.5" r="1.5"></circle>
                <circle id="椭圆形" fill-opacity="0.15" fill="#000000" cx="22" cy="41" r="4"></circle>
                <circle id="椭圆形备份-10" fill-opacity="0.15" fill="#000000" cx="54" cy="41" r="4"></circle>
                <circle id="椭圆形备份-11" fill-opacity="0.15" fill="#000000" cx="86" cy="41" r="4"></circle>
                <rect id="矩形" fill-opacity="0.3" fill="#000000" x="30" y="40" width="9" height="2" rx="1"></rect>
                <rect id="矩形备份-10" fill-opacity="0.3" fill="#000000" x="62" y="40" width="9" height="2" rx="1"></rect>
                <rect id="矩形备份-11" fill-opacity="0.3" fill="#000000" x="94" y="40" width="9" height="2" rx="1"></rect>
                <circle id="椭圆形" fill-opacity="0.15" fill="#000000" cx="92" cy="65" r="9"></circle>
                <path d="M101,65 C101,61.3894788 98.6256694,58.2755228 95.6016763,56.8417569 C95.6016763,56.8417569 94.4011176,59.5611712 92,65 C98,65 101,65 101,65 Z" id="椭圆形" fill-opacity="0.3" fill="#000000"></path>
            </g>
        </g>
    </g>
</svg>