<?xml version="1.0" encoding="UTF-8"?>
<svg width="121px" height="115px" viewBox="0 0 121 115" version="1.1" xmlns="http://www.w3.org/2000/svg" xmlns:xlink="http://www.w3.org/1999/xlink">
    <!-- Generator: Sketch 64 (93537) - https://sketch.com -->
    <title>Form</title>
    <desc>Created with Sketch.</desc>
    <g id="页面-1" stroke="none" stroke-width="1" fill="none" fill-rule="evenodd">
        <g id="User-Flow-Elements-切图" transform="translate(-674.000000, -313.000000)">
            <g id="Form" transform="translate(674.000000, 313.000000)">
                <rect id="矩形备份-30" stroke="#000000" opacity="0.15" x="0.5" y="0.5" width="120" height="114" rx="3"></rect>
                <line x1="1.5" y1="7.5" x2="119.5" y2="7.5" id="直线备份-3" stroke="#000000" opacity="0.15" stroke-linecap="square"></line>
                <rect id="矩形备份-31" fill="#000000" opacity="0.05" x="5" y="3" width="6" height="2" rx="1"></rect>
                <rect id="矩形备份-33" fill="#000000" opacity="0.05" x="13" y="3" width="6" height="2" rx="1"></rect>
                <rect id="矩形备份-34" fill="#000000" opacity="0.05" x="21" y="3" width="6" height="2" rx="1"></rect>
                <rect id="矩形备份-35" fill="#000000" opacity="0.3" x="15" y="21" width="20" height="4" rx="1"></rect>
                <rect id="矩形备份-36" fill="#000000" opacity="0.05" x="15" y="35" width="91" height="66" rx="1"></rect>
                <circle id="椭圆形备份-9" fill="#000000" opacity="0.18" cx="86" cy="23" r="2"></circle>
                <circle id="椭圆形备份-10" fill="#000000" opacity="0.18" cx="92" cy="23" r="2"></circle>
                <circle id="椭圆形备份-11" fill="#000000" opacity="0.18" cx="98" cy="23" r="2"></circle>
                <circle id="椭圆形备份-12" fill="#000000" opacity="0.18" cx="104" cy="23" r="2"></circle>
                <rect id="矩形" stroke="#000000" fill="#D8D8D8" opacity="0.18" x="24.5" y="43.5" width="9" height="1"></rect>
                <rect id="矩形备份-37" stroke="#000000" fill="#D8D8D8" opacity="0.18" x="20.5" y="52.5" width="13" height="1"></rect>
                <rect id="矩形备份-39" stroke="#000000" fill="#D8D8D8" opacity="0.18" x="26.5" y="61.5" width="7" height="1"></rect>
                <rect id="矩形" fill="#FFFFFF" opacity="0.5" x="39" y="42" width="38" height="4" rx="1"></rect>
                <rect id="矩形备份-38" fill="#FFFFFF" opacity="0.5" x="39" y="51" width="16" height="4" rx="1"></rect>
                <rect id="矩形备份-40" fill="#FFFFFF" opacity="0.5" x="39" y="60" width="62" height="25" rx="1"></rect>
                <rect id="矩形" fill="#000000" opacity="0.3" x="39" y="90" width="10" height="4" rx="2"></rect>
                <rect id="矩形备份-41" fill="#000000" opacity="0.18" x="52" y="90" width="8" height="4" rx="2"></rect>
            </g>
        </g>
    </g>
</svg>