<?xml version="1.0" encoding="UTF-8"?>
<svg width="121px" height="160px" viewBox="0 0 121 160" version="1.1" xmlns="http://www.w3.org/2000/svg" xmlns:xlink="http://www.w3.org/1999/xlink">
    <!-- Generator: Sketch 64 (93537) - https://sketch.com -->
    <title>Kanban</title>
    <desc>Created with Sketch.</desc>
    <g id="页面-1" stroke="none" stroke-width="1" fill="none" fill-rule="evenodd">
        <g id="User-Flow-Elements-切图" transform="translate(-881.000000, -86.000000)">
            <g id="Kanban" transform="translate(881.000000, 86.000000)">
                <rect id="矩形备份-10" stroke="#000000" opacity="0.15" x="0.5" y="0.5" width="120" height="159" rx="3"></rect>
                <line x1="1.5" y1="7.5" x2="119.5" y2="7.5" id="直线备份" stroke="#000000" opacity="0.15" stroke-linecap="square"></line>
                <rect id="矩形备份-11" fill="#000000" opacity="0.05" x="5" y="3" width="6" height="2" rx="1"></rect>
                <rect id="矩形备份-12" fill="#000000" opacity="0.05" x="13" y="3" width="6" height="2" rx="1"></rect>
                <rect id="矩形备份-13" fill="#000000" opacity="0.05" x="21" y="3" width="6" height="2" rx="1"></rect>
                <rect id="矩形备份-14" fill="#000000" opacity="0.3" x="15" y="21" width="20" height="4" rx="1"></rect>
                <circle id="椭圆形备份" fill="#000000" opacity="0.18" cx="86" cy="23" r="2"></circle>
                <circle id="椭圆形备份-2" fill="#000000" opacity="0.18" cx="92" cy="23" r="2"></circle>
                <circle id="椭圆形备份-3" fill="#000000" opacity="0.18" cx="98" cy="23" r="2"></circle>
                <circle id="椭圆形备份-4" fill="#000000" opacity="0.18" cx="104" cy="23" r="2"></circle>
                <rect id="矩形" fill="#000000" opacity="0.05" x="15" y="35" width="27" height="111" rx="2"></rect>
                <rect id="矩形备份" fill="#000000" opacity="0.05" x="47" y="35" width="27" height="111" rx="2"></rect>
                <rect id="矩形备份-2" fill="#000000" opacity="0.05" x="79" y="35" width="27" height="111" rx="2"></rect>
                <rect id="矩形" fill="#000000" opacity="0.15" x="17" y="37" width="23" height="11" rx="1"></rect>
                <rect id="矩形备份-9" fill="#000000" opacity="0.15" x="81" y="37" width="23" height="11" rx="1"></rect>
                <rect id="矩形备份-3" fill="#000000" opacity="0.15" x="17" y="50" width="23" height="11" rx="1"></rect>
                <rect id="矩形备份-15" fill="#000000" opacity="0.15" x="81" y="50" width="23" height="11" rx="1"></rect>
                <rect id="矩形备份-4" fill="#000000" opacity="0.15" x="17" y="63" width="23" height="11" rx="1"></rect>
                <rect id="矩形备份-16" fill="#000000" opacity="0.15" x="81" y="63" width="23" height="11" rx="1"></rect>
                <rect id="矩形备份-7" fill="#000000" opacity="0.15" x="49" y="37" width="23" height="11" rx="1"></rect>
                <rect id="矩形备份-8" fill="#000000" opacity="0.15" x="49" y="50" width="23" height="11" rx="1"></rect>
                <rect id="矩形备份-17" fill="#000000" opacity="0.15" x="81" y="76" width="23" height="11" rx="1"></rect>
                <rect id="矩形备份-18" fill="#000000" opacity="0.15" x="81" y="89" width="23" height="11" rx="1"></rect>
            </g>
        </g>
    </g>
</svg>