<?xml version="1.0" encoding="UTF-8"?>
<svg width="121px" height="160px" viewBox="0 0 121 160" version="1.1" xmlns="http://www.w3.org/2000/svg" xmlns:xlink="http://www.w3.org/1999/xlink">
    <!-- Generator: Sketch 64 (93537) - https://sketch.com -->
    <title>TableList</title>
    <desc>Created with Sketch.</desc>
    <g id="页面-1" stroke="none" stroke-width="1" fill="none" fill-rule="evenodd">
        <g id="User-Flow-Elements-切图" transform="translate(-260.000000, -86.000000)">
            <g id="TableList" transform="translate(260.000000, 86.000000)">
                <rect id="矩形备份-10" stroke="#000000" opacity="0.15" x="0.5" y="0.5" width="120" height="159" rx="3"></rect>
                <line x1="1.5" y1="7.5" x2="119.5" y2="7.5" id="直线备份" stroke="#000000" opacity="0.15" stroke-linecap="square"></line>
                <rect id="矩形备份-11" fill-opacity="0.05" fill="#000000" x="5" y="3" width="6" height="2" rx="1"></rect>
                <rect id="矩形备份-12" fill-opacity="0.05" fill="#000000" x="13" y="3" width="6" height="2" rx="1"></rect>
                <rect id="矩形备份-13" fill-opacity="0.05" fill="#000000" x="21" y="3" width="6" height="2" rx="1"></rect>
                <rect id="矩形备份-14" fill-opacity="0.3" fill="#000000" x="15" y="21" width="20" height="4" rx="1"></rect>
                <circle id="椭圆形备份" fill-opacity="0.18" fill="#000000" cx="86" cy="23" r="2"></circle>
                <circle id="椭圆形备份-2" fill-opacity="0.18" fill="#000000" cx="92" cy="23" r="2"></circle>
                <circle id="椭圆形备份-3" fill-opacity="0.18" fill="#000000" cx="98" cy="23" r="2"></circle>
                <circle id="椭圆形备份-4" fill-opacity="0.18" fill="#000000" cx="104" cy="23" r="2"></circle>
                <rect id="矩形备份-15" fill="#000000" opacity="0.05" x="15" y="35" width="20" height="3" rx="1.5"></rect>
                <rect id="矩形备份-16" fill="#000000" opacity="0.05" x="38" y="35" width="15" height="3" rx="1.5"></rect>
                <rect id="矩形备份-17" fill="#000000" opacity="0.05" x="56" y="35" width="10" height="3" rx="1.5"></rect>
                <rect id="矩形备份-18" fill-opacity="0.05" fill="#000000" x="15" y="43" width="91" height="103" rx="2"></rect>
                <g id="编组" transform="translate(20.000000, 52.000000)" fill="#000000" opacity="0.18">
                    <rect id="矩形" x="0" y="0" width="22" height="3"></rect>
                    <rect id="矩形备份-19" x="25" y="0" width="39" height="3"></rect>
                    <rect id="矩形备份-20" x="67" y="0" width="14" height="3"></rect>
                </g>
                <g id="编组" transform="translate(20.000000, 134.000000)" fill="#000000" opacity="0.18">
                    <rect id="矩形" x="0" y="0" width="22" height="3"></rect>
                    <rect id="矩形备份-19" x="25" y="0" width="39" height="3"></rect>
                    <rect id="矩形备份-20" x="67" y="0" width="14" height="3"></rect>
                </g>
                <g id="编组" transform="translate(20.000000, 123.750000)" fill="#000000" opacity="0.18">
                    <rect id="矩形" x="0" y="0" width="22" height="3"></rect>
                    <rect id="矩形备份-19" x="25" y="0" width="39" height="3"></rect>
                    <rect id="矩形备份-20" x="67" y="0" width="14" height="3"></rect>
                </g>
                <g id="编组" transform="translate(20.000000, 113.500000)" fill="#000000" opacity="0.18">
                    <rect id="矩形" x="0" y="0" width="22" height="3"></rect>
                    <rect id="矩形备份-19" x="25" y="0" width="39" height="3"></rect>
                    <rect id="矩形备份-20" x="67" y="0" width="14" height="3"></rect>
                </g>
                <g id="编组" transform="translate(20.000000, 103.250000)" fill="#000000" opacity="0.18">
                    <rect id="矩形" x="0" y="0" width="22" height="3"></rect>
                    <rect id="矩形备份-19" x="25" y="0" width="39" height="3"></rect>
                    <rect id="矩形备份-20" x="67" y="0" width="14" height="3"></rect>
                </g>
                <g id="编组" transform="translate(20.000000, 93.000000)" fill="#000000" opacity="0.18">
                    <rect id="矩形" x="0" y="0" width="22" height="3"></rect>
                    <rect id="矩形备份-19" x="25" y="0" width="39" height="3"></rect>
                    <rect id="矩形备份-20" x="67" y="0" width="14" height="3"></rect>
                </g>
                <g id="编组" transform="translate(20.000000, 82.750000)" fill="#000000" opacity="0.18">
                    <rect id="矩形" x="0" y="0" width="22" height="3"></rect>
                    <rect id="矩形备份-19" x="25" y="0" width="39" height="3"></rect>
                    <rect id="矩形备份-20" x="67" y="0" width="14" height="3"></rect>
                </g>
                <g id="编组" transform="translate(20.000000, 72.500000)" fill="#000000" opacity="0.18">
                    <rect id="矩形" x="0" y="0" width="22" height="3"></rect>
                    <rect id="矩形备份-19" x="25" y="0" width="39" height="3"></rect>
                    <rect id="矩形备份-20" x="67" y="0" width="14" height="3"></rect>
                </g>
                <g id="编组" transform="translate(20.000000, 62.250000)" fill="#000000" opacity="0.18">
                    <rect id="矩形" x="0" y="0" width="22" height="3"></rect>
                    <rect id="矩形备份-19" x="25" y="0" width="39" height="3"></rect>
                    <rect id="矩形备份-20" x="67" y="0" width="14" height="3"></rect>
                </g>
            </g>
        </g>
    </g>
</svg>